<?xml version="1.0" encoding="UTF-8"?>
<svg width="461px" height="287px" viewBox="0 0 461 287" version="1.1" xmlns="http://www.w3.org/2000/svg" xmlns:xlink="http://www.w3.org/1999/xlink">
    <!-- Generator: Sketch 64 (93537) - https://sketch.com -->
    <title>Icon/Enter your preferences</title>
    <desc>Created with Sketch.</desc>
    <defs>
        <polygon id="path-1" points="0 0.5911 170.4086 0.5911 170.4086 171 0 171"></polygon>
        <polygon id="path-3" points="0.1447 0.8385 32.6897 0.8385 32.6897 78 0.1447 78"></polygon>
    </defs>
    <g id="Icon/Enter-your-preferences" stroke="none" stroke-width="1" fill="none" fill-rule="evenodd">
        <g id="Group-6" transform="translate(1.000000, 0.000000)">
            <path d="M393.878003,99.030999 C398.748556,177.05812 256.738127,316.84492 155.070187,281.326931 C53.4022468,245.808941 6.76181642,107.107187 55.2760625,33.2014401 C103.790308,-40.7043069 389.007449,21.003878 393.878003,99.030999 Z" id="Background-Shape-Copy-2" fill="#008040" fill-rule="nonzero" opacity="0.1" transform="translate(215.000000, 143.500000) scale(-1, 1) translate(-215.000000, -143.500000) "></path>
            <g id="Group-3" transform="translate(0.000000, 13.000000)">
                <g id="Group-2-Copy" transform="translate(0.000000, 24.000000)">
                    <polyline id="Path-2" stroke="#464646" stroke-width="3" opacity="0.5" points="126.794677 74.8631179 228.391635 108.627376 166.851711 195.927757"></polyline>
                    <polyline id="Path-2-Copy" stroke="#464646" stroke-width="3" opacity="0.5" transform="translate(280.406844, 135.395437) scale(-1, 1) translate(-280.406844, -135.395437) " points="229.608365 74.8631179 331.205323 108.627376 269.665399 195.927757"></polyline>
                    <line x1="228.695817" y1="0.0342205323" x2="228.695817" y2="108.323194" id="Path-4" stroke="#464646" stroke-width="3" opacity="0.5"></line>
                    <g id="Chip/Basic-Copy" transform="translate(92.000000, 195.000000)">
                        <g id="Chip">
                            <g id="Container/Circular" transform="translate(0.543945, 0.000000)">
                                <path d="M12,0 L84.0214844,0 C90.6489014,-1.21743675e-15 96.0214844,5.372583 96.0214844,12 C96.0214844,18.627417 90.6489014,24 84.0214844,24 L12,24 C5.372583,24 8.11624501e-16,18.627417 0,12 C-8.11624501e-16,5.372583 5.372583,1.21743675e-15 12,0 Z" id="Color" fill="#008040" fill-rule="nonzero"></path>
                                <g id="State" stroke-width="1" fill-rule="evenodd" transform="translate(1.882774, 0.000000)">
                                    <path d="M11,0 L83.0214844,0 C89.6489014,-1.21743675e-15 95.0214844,5.372583 95.0214844,12 C95.0214844,18.627417 89.6489014,24 83.0214844,24 L11,24 C4.372583,24 -1,18.627417 -1,12 C-1,5.372583 4.372583,2.99379359e-15 11,0 Z" fill-rule="nonzero"></path>
                                </g>
                            </g>
                            <path d="M11.3740234,16.7734375 C12.5315755,16.7734375 13.4350586,16.5136719 14.0844727,15.9941406 C14.7338867,15.4746094 15.0585938,14.7636719 15.0585938,13.8613281 C15.0585938,13.2096354 14.8854167,12.6593424 14.5390625,12.2104492 C14.1927083,11.761556 13.5524089,11.3138021 12.6181641,10.8671875 C11.9117839,10.5299479 11.4640299,10.2963867 11.2749023,10.1665039 C11.0857747,10.0366211 10.9479167,9.90218099 10.8613281,9.76318359 C10.7747396,9.6241862 10.7314453,9.46126302 10.7314453,9.27441406 C10.7314453,8.97363281 10.8385417,8.72981771 11.0527344,8.54296875 C11.2669271,8.35611979 11.5745443,8.26269531 11.9755859,8.26269531 C12.3128255,8.26269531 12.6557617,8.30598958 13.0043945,8.39257812 C13.3530273,8.47916667 13.7939453,8.63183594 14.3271484,8.85058594 L14.3271484,8.85058594 L15.0107422,7.203125 C14.4957682,6.97981771 14.0024414,6.80664062 13.5307617,6.68359375 C13.059082,6.56054688 12.5634766,6.49902344 12.0439453,6.49902344 C10.9866536,6.49902344 10.1583659,6.75195312 9.55908203,7.2578125 C8.95979818,7.76367188 8.66015625,8.45865885 8.66015625,9.34277344 C8.66015625,9.81217448 8.75130208,10.2223307 8.93359375,10.5732422 C9.11588542,10.9241536 9.35970052,11.2317708 9.66503906,11.4960938 C9.9703776,11.7604167 10.4283854,12.0361328 11.0390625,12.3232422 C11.6907552,12.633138 12.1225586,12.858724 12.3344727,13 C12.5463867,13.141276 12.7070312,13.2882487 12.8164062,13.440918 C12.9257812,13.5935872 12.9804688,13.7679036 12.9804688,13.9638672 C12.9804688,14.3147786 12.8562826,14.5791016 12.6079102,14.7568359 C12.3595378,14.9345703 12.0029297,15.0234375 11.5380859,15.0234375 C11.1507161,15.0234375 10.7234701,14.9619141 10.2563477,14.8388672 C9.78922526,14.7158203 9.21842448,14.5039062 8.54394531,14.203125 L8.54394531,14.203125 L8.54394531,16.171875 C9.36425781,16.5729167 10.3076172,16.7734375 11.3740234,16.7734375 Z M19.3242188,16.7734375 C20.0807292,16.7734375 20.71875,16.6572266 21.2382812,16.4248047 L21.2382812,16.4248047 L21.2382812,14.8730469 C20.7278646,15.0325521 20.2903646,15.1123047 19.9257812,15.1123047 C19.6523438,15.1123047 19.4324544,15.0416667 19.2661133,14.9003906 C19.0997721,14.7591146 19.0166016,14.5403646 19.0166016,14.2441406 L19.0166016,14.2441406 L19.0166016,10.5595703 L21.15625,10.5595703 L21.15625,8.99414062 L19.0166016,8.99414062 L19.0166016,7.3671875 L17.6835938,7.3671875 L17.0820312,8.98046875 L15.9335938,9.67773438 L15.9335938,10.5595703 L16.9316406,10.5595703 L16.9316406,14.2441406 C16.9316406,15.0872396 17.1219076,15.7195638 17.5024414,16.1411133 C17.8829753,16.5626628 18.4902344,16.7734375 19.3242188,16.7734375 Z M25.4560547,16.7734375 C25.9801432,16.7734375 26.4472656,16.6765951 26.8574219,16.4829102 C27.2675781,16.2892253 27.5843099,16.0146484 27.8076172,15.6591797 L27.8076172,15.6591797 L27.9169922,15.6591797 L28.1972656,16.6367188 L29.796875,16.6367188 L29.796875,8.99414062 L27.7119141,8.99414062 L27.7119141,12.5898438 C27.7119141,13.4921875 27.5820312,14.1381836 27.3222656,14.527832 C27.0625,14.9174805 26.6409505,15.1123047 26.0576172,15.1123047 C25.6292318,15.1123047 25.3170573,14.9744466 25.1210938,14.6987305 C24.9251302,14.4230143 24.8271484,14.0094401 24.8271484,13.4580078 L24.8271484,13.4580078 L24.8271484,8.99414062 L22.7421875,8.99414062 L22.7421875,13.9775391 C22.7421875,14.8798828 22.9700521,15.5714518 23.4257812,16.0522461 C23.8815104,16.5330404 24.5582682,16.7734375 25.4560547,16.7734375 Z M34.4042969,16.7734375 C35.375,16.7734375 36.0973307,16.3974609 36.5712891,15.6455078 L36.5712891,15.6455078 L36.6601562,15.6455078 L37.0634766,16.6367188 L38.6630859,16.6367188 L38.6630859,6 L36.5712891,6 L36.5712891,8.44726562 C36.5712891,8.89388021 36.6236979,9.40201823 36.7285156,9.97167969 L36.7285156,9.97167969 L36.6601562,9.97167969 C36.1542969,9.22428385 35.4205729,8.85058594 34.4589844,8.85058594 C33.5429688,8.85058594 32.824056,9.20035807 32.3022461,9.89990234 C31.7804362,10.5994466 31.5195312,11.5758464 31.5195312,12.8291016 C31.5195312,14.0641276 31.7758789,15.0302734 32.2885742,15.7275391 C32.8012695,16.4248047 33.5065104,16.7734375 34.4042969,16.7734375 Z M35.1357422,15.1123047 C34.6526693,15.1123047 34.28125,14.9243164 34.0214844,14.5483398 C33.7617188,14.1723633 33.6318359,13.6083984 33.6318359,12.8564453 C33.6318359,12.1044922 33.7605794,11.5314128 34.0180664,11.137207 C34.2755534,10.7430013 34.6367188,10.5458984 35.1015625,10.5458984 C35.671224,10.5458984 36.0825195,10.7236328 36.3354492,11.0791016 C36.5883789,11.4345703 36.7148438,12.0224609 36.7148438,12.8427734 L36.7148438,12.8427734 L36.7148438,13.0683594 C36.6920573,13.8111979 36.5564779,14.3375651 36.3081055,14.6474609 C36.0597331,14.9573568 35.6689453,15.1123047 35.1357422,15.1123047 Z M41.2880859,20 C42.0218099,20 42.6632487,19.8017578 43.2124023,19.4052734 C43.761556,19.0087891 44.1842448,18.4117839 44.4804688,17.6142578 L44.4804688,17.6142578 L47.7138672,8.99414062 L45.4785156,8.99414062 L44.0634766,13.2939453 C43.9176432,13.7086589 43.8196615,14.1507161 43.7695312,14.6201172 L43.7695312,14.6201172 L43.7285156,14.6201172 C43.6829427,14.1097005 43.5986328,13.6676432 43.4755859,13.2939453 L43.4755859,13.2939453 L42.0332031,8.99414062 L39.75,8.99414062 L42.7851562,16.5820312 L42.6621094,16.9580078 C42.5071615,17.413737 42.2918294,17.7543945 42.0161133,17.9799805 C41.7403971,18.2055664 41.4179688,18.3183594 41.0488281,18.3183594 C40.7526042,18.3183594 40.4791667,18.288737 40.2285156,18.2294922 L40.2285156,18.2294922 L40.2285156,19.8837891 C40.5748698,19.961263 40.9280599,20 41.2880859,20 Z M54.5292969,20 L54.5292969,16.9033203 C54.5292969,16.8030599 54.4928385,16.4339193 54.4199219,15.7958984 L54.4199219,15.7958984 L54.5292969,15.7958984 C55.0397135,16.4475911 55.7438151,16.7734375 56.6416016,16.7734375 C57.2386068,16.7734375 57.758138,16.6162109 58.2001953,16.3017578 C58.6422526,15.9873047 58.9829102,15.5292969 59.222168,14.9277344 C59.4614258,14.3261719 59.5810547,13.617513 59.5810547,12.8017578 C59.5810547,11.5621745 59.3258464,10.59375 58.8154297,9.89648438 C58.305013,9.19921875 57.5986328,8.85058594 56.6962891,8.85058594 C55.7392578,8.85058594 55.0169271,9.22884115 54.5292969,9.98535156 L54.5292969,9.98535156 L54.4335938,9.98535156 L54.1396484,8.99414062 L52.4443359,8.99414062 L52.4443359,20 L54.5292969,20 Z M56.0537109,15.0849609 C55.5250651,15.0849609 55.1388346,14.9072266 54.8950195,14.5517578 C54.6512044,14.1962891 54.5292969,13.6083984 54.5292969,12.7880859 L54.5292969,12.7880859 L54.5292969,12.5625 C54.5384115,11.8333333 54.6614583,11.3103841 54.8984375,10.9936523 C55.1354167,10.6769206 55.5113932,10.5185547 56.0263672,10.5185547 C56.5185547,10.5185547 56.8797201,10.706543 57.1098633,11.0825195 C57.3400065,11.4584961 57.4550781,12.0224609 57.4550781,12.7744141 C57.4550781,14.3147786 56.9879557,15.0849609 56.0537109,15.0849609 Z M63.3886719,16.6367188 L63.3886719,6 L61.3037109,6 L61.3037109,16.6367188 L63.3886719,16.6367188 Z M67.4355469,16.7734375 C68.0325521,16.7734375 68.5167643,16.6879883 68.8881836,16.5170898 C69.2596029,16.3461914 69.6207682,16.0397135 69.9716797,15.5976562 L69.9716797,15.5976562 L70.0263672,15.5976562 L70.4296875,16.6367188 L71.8857422,16.6367188 L71.8857422,11.5439453 C71.8857422,10.632487 71.6123047,9.95345052 71.0654297,9.50683594 C70.5185547,9.06022135 69.7324219,8.83691406 68.7070312,8.83691406 C67.6360677,8.83691406 66.6608073,9.06705729 65.78125,9.52734375 L65.78125,9.52734375 L66.4716797,10.9355469 C67.2965495,10.5664062 68.0143229,10.3818359 68.625,10.3818359 C69.4179688,10.3818359 69.8144531,10.7692057 69.8144531,11.5439453 L69.8144531,11.5439453 L69.8144531,11.8789062 L68.4882812,11.9199219 C67.344401,11.9609375 66.4887695,12.1739909 65.9213867,12.559082 C65.3540039,12.9441732 65.0703125,13.5423177 65.0703125,14.3535156 C65.0703125,15.1282552 65.2810872,15.7252604 65.7026367,16.1445312 C66.1241862,16.5638021 66.7018229,16.7734375 67.4355469,16.7734375 Z M68.2216797,15.2490234 C67.5472005,15.2490234 67.2099609,14.9550781 67.2099609,14.3671875 C67.2099609,13.9570312 67.3580729,13.6516927 67.6542969,13.4511719 C67.9505208,13.250651 68.4016927,13.141276 69.0078125,13.1230469 L69.0078125,13.1230469 L69.8144531,13.0957031 L69.8144531,13.7246094 C69.8144531,14.1848958 69.6697591,14.5540365 69.3803711,14.8320312 C69.0909831,15.110026 68.7047526,15.2490234 68.2216797,15.2490234 Z M76.1171875,16.6367188 L76.1171875,13.0410156 C76.1171875,12.1386719 76.2470703,11.4926758 76.5068359,11.1030273 C76.7666016,10.7133789 77.188151,10.5185547 77.7714844,10.5185547 C78.1998698,10.5185547 78.5120443,10.6564128 78.7080078,10.9321289 C78.9039714,11.2078451 79.0019531,11.6214193 79.0019531,12.1728516 L79.0019531,12.1728516 L79.0019531,16.6367188 L81.0869141,16.6367188 L81.0869141,11.6533203 C81.0869141,10.7464193 80.8567708,10.0525716 80.3964844,9.57177734 C79.9361979,9.09098307 79.2617188,8.85058594 78.3730469,8.85058594 C77.8535156,8.85058594 77.3898112,8.94514974 76.9819336,9.13427734 C76.574056,9.32340495 76.2539062,9.60253906 76.0214844,9.97167969 L76.0214844,9.97167969 L75.9052734,9.97167969 L75.625,8.99414062 L74.0322266,8.99414062 L74.0322266,16.6367188 L76.1171875,16.6367188 Z M85.3046875,16.7734375 C86.3893229,16.7734375 87.2039388,16.5683594 87.7485352,16.1582031 C88.2931315,15.7480469 88.5654297,15.1510417 88.5654297,14.3671875 C88.5654297,13.9889323 88.499349,13.6630859 88.3671875,13.3896484 C88.235026,13.1162109 88.0299479,12.8746745 87.7519531,12.6650391 C87.4739583,12.4554036 87.0364583,12.2298177 86.4394531,11.9882812 C85.7695312,11.719401 85.3354492,11.5166016 85.137207,11.3798828 C84.9389648,11.2431641 84.8398438,11.0813802 84.8398438,10.8945312 C84.8398438,10.561849 85.1474609,10.3955078 85.7626953,10.3955078 C86.1090495,10.3955078 86.4485677,10.4479167 86.78125,10.5527344 C87.1139323,10.6575521 87.4716797,10.7919922 87.8544922,10.9560547 L87.8544922,10.9560547 L88.4833984,9.45214844 C87.6129557,9.05110677 86.7174479,8.85058594 85.796875,8.85058594 C84.8307292,8.85058594 84.0844727,9.03629557 83.5581055,9.40771484 C83.0317383,9.77913411 82.7685547,10.304362 82.7685547,10.9833984 C82.7685547,11.3798828 82.8312174,11.7137044 82.956543,11.9848633 C83.0818685,12.2560221 83.2823893,12.4964193 83.5581055,12.7060547 C83.8338216,12.9156901 84.265625,13.1435547 84.8535156,13.3896484 C85.2636719,13.5628255 85.5917969,13.7143555 85.8378906,13.8442383 C86.0839844,13.9741211 86.2571615,14.090332 86.3574219,14.1928711 C86.4576823,14.2954102 86.5078125,14.4287109 86.5078125,14.5927734 C86.5078125,15.0302734 86.1295573,15.2490234 85.3730469,15.2490234 C85.0039062,15.2490234 84.5766602,15.1875 84.0913086,15.0644531 C83.605957,14.9414062 83.1695964,14.788737 82.7822266,14.6064453 L82.7822266,14.6064453 L82.7822266,16.3291016 C83.1240234,16.4749349 83.4908854,16.5854492 83.8828125,16.6606445 C84.2747396,16.7358398 84.7486979,16.7734375 85.3046875,16.7734375 Z" id="Studyplans" fill="#FFFFFF" fill-rule="nonzero"></path>
                        </g>
                    </g>
                    <g id="Chip/Basic-Copy-2" transform="translate(0.000000, 63.000000)">
                        <g id="Chip">
                            <g id="Container/Circular" transform="translate(0.346191, 0.288086)">
                                <path d="M12,0 L117.032227,0 C123.659644,-1.21743675e-15 129.032227,5.372583 129.032227,12 C129.032227,18.627417 123.659644,24 117.032227,24 L12,24 C5.372583,24 8.11624501e-16,18.627417 0,12 C-8.11624501e-16,5.372583 5.372583,1.21743675e-15 12,0 Z" id="Color" fill="#DC143C" fill-rule="nonzero"></path>
                                <g id="State" stroke-width="1" fill-rule="evenodd" transform="translate(2.530044, 0.000000)">
                                    <path d="M11,0 L116.032227,0 C122.659644,-1.21743675e-15 128.032227,5.372583 128.032227,12 C128.032227,18.627417 122.659644,24 116.032227,24 L11,24 C4.372583,24 -1,18.627417 -1,12 C-1,5.372583 4.372583,1.21743675e-15 11,0 Z" fill-rule="nonzero"></path>
                                </g>
                            </g>
                            <path d="M14.519043,17 L14.519043,15.25 L10.465332,15.25 L10.465332,7.00585938 L8.34619141,7.00585938 L8.34619141,17 L14.519043,17 Z M17.137207,8.40722656 C17.5154622,8.40722656 17.7991536,8.31722005 17.9882812,8.13720703 C18.1774089,7.95719401 18.2719727,7.70540365 18.2719727,7.38183594 C18.2719727,6.70279948 17.8937174,6.36328125 17.137207,6.36328125 C16.3806966,6.36328125 16.0024414,6.70279948 16.0024414,7.38183594 C16.0024414,8.06542969 16.3806966,8.40722656 17.137207,8.40722656 Z M18.1762695,17 L18.1762695,9.35742188 L16.0913086,9.35742188 L16.0913086,17 L18.1762695,17 Z M22.7836914,17 L22.7836914,10.9228516 L24.5883789,10.9228516 L24.5883789,9.35742188 L22.7836914,9.35742188 L22.7836914,8.87890625 C22.7836914,8.60546875 22.8497721,8.38102214 22.9819336,8.20556641 C23.1140951,8.03011068 23.3282878,7.94238281 23.6245117,7.94238281 C23.9799805,7.94238281 24.3673503,8.00846354 24.7866211,8.140625 L24.7866211,8.140625 L25.3198242,6.609375 C24.7592773,6.39518229 24.1189779,6.28808594 23.3989258,6.28808594 C22.4555664,6.28808594 21.769694,6.48860677 21.3413086,6.88964844 C20.9129232,7.2906901 20.6987305,7.92643229 20.6987305,8.796875 L20.6987305,8.796875 L20.6987305,9.35742188 L19.550293,9.91796875 L19.550293,10.9228516 L20.6987305,10.9228516 L20.6987305,17 L22.7836914,17 Z M29.2436523,17.1367188 C29.8406576,17.1367188 30.3465169,17.0922852 30.7612305,17.003418 C31.175944,16.9145508 31.5655924,16.7789714 31.9301758,16.5966797 L31.9301758,16.5966797 L31.9301758,14.9833984 C31.4835612,15.1930339 31.0551758,15.3457031 30.6450195,15.4414062 C30.2348633,15.5371094 29.7996419,15.5849609 29.3393555,15.5849609 C28.7469076,15.5849609 28.2866211,15.4186198 27.9584961,15.0859375 C27.6303711,14.7532552 27.4549154,14.2906901 27.4321289,13.6982422 L27.4321289,13.6982422 L32.3608398,13.6982422 L32.3608398,12.6865234 C32.3608398,11.601888 32.0600586,10.7519531 31.4584961,10.1367188 C30.8569336,9.52148438 30.0161133,9.21386719 28.9360352,9.21386719 C27.8058268,9.21386719 26.9205729,9.56363932 26.2802734,10.2631836 C25.639974,10.9627279 25.3198242,11.9527995 25.3198242,13.2333984 C25.3198242,14.4775391 25.6661784,15.4391276 26.3588867,16.1181641 C27.0515951,16.7972005 28.0131836,17.1367188 29.2436523,17.1367188 Z M30.4057617,12.3105469 L27.4799805,12.3105469 C27.5164388,11.7955729 27.6599935,11.3979492 27.9106445,11.1176758 C28.1612956,10.8374023 28.5076497,10.6972656 28.949707,10.6972656 C29.3917643,10.6972656 29.7426758,10.8374023 30.0024414,11.1176758 C30.262207,11.3979492 30.3966471,11.7955729 30.4057617,12.3105469 L30.4057617,12.3105469 Z M36.1274414,17.1367188 C37.2120768,17.1367188 38.0266927,16.9316406 38.5712891,16.5214844 C39.1158854,16.1113281 39.3881836,15.5143229 39.3881836,14.7304688 C39.3881836,14.3522135 39.3221029,14.0263672 39.1899414,13.7529297 C39.0577799,13.4794922 38.8527018,13.2379557 38.574707,13.0283203 C38.2967122,12.8186849 37.8592122,12.593099 37.262207,12.3515625 C36.5922852,12.0826823 36.1582031,11.8798828 35.9599609,11.7431641 C35.7617188,11.6064453 35.6625977,11.4446615 35.6625977,11.2578125 C35.6625977,10.9251302 35.9702148,10.7587891 36.5854492,10.7587891 C36.9318034,10.7587891 37.2713216,10.8111979 37.6040039,10.9160156 C37.9366862,11.0208333 38.2944336,11.1552734 38.6772461,11.3193359 L38.6772461,11.3193359 L39.3061523,9.81542969 C38.4357096,9.41438802 37.5402018,9.21386719 36.6196289,9.21386719 C35.6534831,9.21386719 34.9072266,9.39957682 34.3808594,9.77099609 C33.8544922,10.1424154 33.5913086,10.6676432 33.5913086,11.3466797 C33.5913086,11.7431641 33.6539714,12.0769857 33.7792969,12.3481445 C33.9046224,12.6193034 34.1051432,12.8597005 34.3808594,13.0693359 C34.6565755,13.2789714 35.0883789,13.5068359 35.6762695,13.7529297 C36.0864258,13.9261068 36.4145508,14.0776367 36.6606445,14.2075195 C36.9067383,14.3374023 37.0799154,14.4536133 37.1801758,14.5561523 C37.2804362,14.6586914 37.3305664,14.7919922 37.3305664,14.9560547 C37.3305664,15.3935547 36.9523112,15.6123047 36.1958008,15.6123047 C35.8266602,15.6123047 35.3994141,15.5507812 34.9140625,15.4277344 C34.4287109,15.3046875 33.9923503,15.1520182 33.6049805,14.9697266 L33.6049805,14.9697266 L33.6049805,16.6923828 C33.9467773,16.8382161 34.3136393,16.9487305 34.7055664,17.0239258 C35.0974935,17.0991211 35.5714518,17.1367188 36.1274414,17.1367188 Z M43.6333008,17.1367188 C44.3898112,17.1367188 45.027832,17.0205078 45.5473633,16.7880859 L45.5473633,16.7880859 L45.5473633,15.2363281 C45.0369466,15.3958333 44.5994466,15.4755859 44.2348633,15.4755859 C43.9614258,15.4755859 43.7415365,15.4049479 43.5751953,15.2636719 C43.4088542,15.1223958 43.3256836,14.9036458 43.3256836,14.6074219 L43.3256836,14.6074219 L43.3256836,10.9228516 L45.465332,10.9228516 L45.465332,9.35742188 L43.3256836,9.35742188 L43.3256836,7.73046875 L41.9926758,7.73046875 L41.3911133,9.34375 L40.2426758,10.0410156 L40.2426758,10.9228516 L41.2407227,10.9228516 L41.2407227,14.6074219 C41.2407227,15.4505208 41.4309896,16.0828451 41.8115234,16.5043945 C42.1920573,16.925944 42.7993164,17.1367188 43.6333008,17.1367188 Z M47.5366211,20.3632812 C48.2703451,20.3632812 48.9117839,20.1650391 49.4609375,19.7685547 C50.0100911,19.3720703 50.4327799,18.7750651 50.7290039,17.9775391 L50.7290039,17.9775391 L53.9624023,9.35742188 L51.7270508,9.35742188 L50.3120117,13.6572266 C50.1661784,14.0719401 50.0681966,14.5139974 50.0180664,14.9833984 L50.0180664,14.9833984 L49.9770508,14.9833984 C49.9314779,14.4729818 49.847168,14.0309245 49.7241211,13.6572266 L49.7241211,13.6572266 L48.2817383,9.35742188 L45.9985352,9.35742188 L49.0336914,16.9453125 L48.9106445,17.3212891 C48.7556966,17.7770182 48.5403646,18.1176758 48.2646484,18.3432617 C47.9889323,18.5688477 47.6665039,18.6816406 47.2973633,18.6816406 C47.0011393,18.6816406 46.7277018,18.6520182 46.4770508,18.5927734 L46.4770508,18.5927734 L46.4770508,20.2470703 C46.8234049,20.3245443 47.1765951,20.3632812 47.5366211,20.3632812 Z M57.1411133,17 L57.1411133,6.36328125 L55.0561523,6.36328125 L55.0561523,17 L57.1411133,17 Z M62.7875977,17.1367188 C63.3846029,17.1367188 63.8904622,17.0922852 64.3051758,17.003418 C64.7198893,16.9145508 65.1095378,16.7789714 65.4741211,16.5966797 L65.4741211,16.5966797 L65.4741211,14.9833984 C65.0275065,15.1930339 64.5991211,15.3457031 64.1889648,15.4414062 C63.7788086,15.5371094 63.3435872,15.5849609 62.8833008,15.5849609 C62.2908529,15.5849609 61.8305664,15.4186198 61.5024414,15.0859375 C61.1743164,14.7532552 60.9988607,14.2906901 60.9760742,13.6982422 L60.9760742,13.6982422 L65.9047852,13.6982422 L65.9047852,12.6865234 C65.9047852,11.601888 65.6040039,10.7519531 65.0024414,10.1367188 C64.4008789,9.52148438 63.5600586,9.21386719 62.4799805,9.21386719 C61.3497721,9.21386719 60.4645182,9.56363932 59.8242188,10.2631836 C59.1839193,10.9627279 58.8637695,11.9527995 58.8637695,13.2333984 C58.8637695,14.4775391 59.2101237,15.4391276 59.902832,16.1181641 C60.5955404,16.7972005 61.5571289,17.1367188 62.7875977,17.1367188 Z M63.949707,12.3105469 L61.0239258,12.3105469 C61.0603841,11.7955729 61.2039388,11.3979492 61.4545898,11.1176758 C61.7052409,10.8374023 62.0515951,10.6972656 62.4936523,10.6972656 C62.9357096,10.6972656 63.2866211,10.8374023 63.5463867,11.1176758 C63.8061523,11.3979492 63.9405924,11.7955729 63.949707,12.3105469 L63.949707,12.3105469 Z M74.340332,17.1367188 C74.8644206,17.1367188 75.2985026,17.0957031 75.6425781,17.0136719 C75.9866536,16.9316406 76.3273112,16.7835286 76.6645508,16.5693359 L76.6645508,16.5693359 L76.6645508,14.7851562 C76.3227539,15.0130208 75.980957,15.1805013 75.6391602,15.2875977 C75.2973633,15.394694 74.925944,15.4482422 74.5249023,15.4482422 C73.4402669,15.4482422 72.8979492,14.7008464 72.8979492,13.2060547 C72.8979492,11.6656901 73.4402669,10.8955078 74.5249023,10.8955078 C74.8074544,10.8955078 75.0900065,10.9376628 75.3725586,11.0219727 C75.6551107,11.1062826 75.9604492,11.2145182 76.2885742,11.3466797 L76.2885742,11.3466797 L76.9038086,9.73339844 C76.2019857,9.38704427 75.4090169,9.21386719 74.5249023,9.21386719 C73.3172201,9.21386719 72.3898112,9.55680339 71.7426758,10.2426758 C71.0955404,10.9285482 70.7719727,11.9208984 70.7719727,13.2197266 C70.7719727,15.8310547 71.9614258,17.1367188 74.340332,17.1367188 Z M80.5200195,17 L80.5200195,13.4042969 C80.5200195,12.515625 80.6499023,11.8730469 80.909668,11.4765625 C81.1694336,11.0800781 81.5909831,10.8818359 82.1743164,10.8818359 C82.9946289,10.8818359 83.4047852,11.4332682 83.4047852,12.5361328 L83.4047852,12.5361328 L83.4047852,17 L85.4897461,17 L85.4897461,12.0166016 C85.4897461,11.1142578 85.2573242,10.4215495 84.7924805,9.93847656 C84.3276367,9.45540365 83.6463216,9.21386719 82.7485352,9.21386719 C81.7368164,9.21386719 80.9985352,9.5875651 80.5336914,10.3349609 L80.5336914,10.3349609 L80.4243164,10.3349609 L80.472168,9.71972656 C80.504069,9.0953776 80.5200195,8.69889323 80.5200195,8.53027344 L80.5200195,8.53027344 L80.5200195,6.36328125 L78.4350586,6.36328125 L78.4350586,17 L80.5200195,17 Z M90.855957,17.1367188 C92.027181,17.1367188 92.940918,16.7858073 93.597168,16.0839844 C94.253418,15.3821615 94.581543,14.4091797 94.581543,13.1650391 C94.581543,12.3629557 94.4311523,11.6634115 94.1303711,11.0664062 C93.8295898,10.469401 93.3989258,10.0113932 92.8383789,9.69238281 C92.277832,9.3733724 91.6306966,9.21386719 90.8969727,9.21386719 C89.7166341,9.21386719 88.8006185,9.56022135 88.1489258,10.2529297 C87.4972331,10.945638 87.1713867,11.9163411 87.1713867,13.1650391 C87.1713867,13.9671224 87.3217773,14.6689453 87.6225586,15.2705078 C87.9233398,15.8720703 88.3540039,16.3334961 88.9145508,16.6547852 C89.4750977,16.9760742 90.1222331,17.1367188 90.855957,17.1367188 Z M90.8833008,15.4619141 C90.3227539,15.4619141 89.9182943,15.2682292 89.6699219,14.8808594 C89.4215495,14.4934896 89.2973633,13.9215495 89.2973633,13.1650391 C89.2973633,12.4039714 89.4204102,11.8354492 89.6665039,11.4594727 C89.9125977,11.0834961 90.3136393,10.8955078 90.8696289,10.8955078 C91.4301758,10.8955078 91.8334961,11.0846354 92.0795898,11.4628906 C92.3256836,11.8411458 92.4487305,12.4085286 92.4487305,13.1650391 C92.4487305,13.9261068 92.3268229,14.4991862 92.0830078,14.8842773 C91.8391927,15.2693685 91.4392904,15.4619141 90.8833008,15.4619141 Z M97.3500977,8.40722656 C97.7283529,8.40722656 98.0120443,8.31722005 98.2011719,8.13720703 C98.3902995,7.95719401 98.4848633,7.70540365 98.4848633,7.38183594 C98.4848633,6.70279948 98.1066081,6.36328125 97.3500977,6.36328125 C96.5935872,6.36328125 96.215332,6.70279948 96.215332,7.38183594 C96.215332,8.06542969 96.5935872,8.40722656 97.3500977,8.40722656 Z M98.3891602,17 L98.3891602,9.35742188 L96.3041992,9.35742188 L96.3041992,17 L98.3891602,17 Z M103.680176,17.1367188 C104.204264,17.1367188 104.638346,17.0957031 104.982422,17.0136719 C105.326497,16.9316406 105.667155,16.7835286 106.004395,16.5693359 L106.004395,16.5693359 L106.004395,14.7851562 C105.662598,15.0130208 105.320801,15.1805013 104.979004,15.2875977 C104.637207,15.394694 104.265788,15.4482422 103.864746,15.4482422 C102.780111,15.4482422 102.237793,14.7008464 102.237793,13.2060547 C102.237793,11.6656901 102.780111,10.8955078 103.864746,10.8955078 C104.147298,10.8955078 104.42985,10.9376628 104.712402,11.0219727 C104.994954,11.1062826 105.300293,11.2145182 105.628418,11.3466797 L105.628418,11.3466797 L106.243652,9.73339844 C105.541829,9.38704427 104.748861,9.21386719 103.864746,9.21386719 C102.657064,9.21386719 101.729655,9.55680339 101.08252,10.2426758 C100.435384,10.9285482 100.111816,11.9208984 100.111816,13.2197266 C100.111816,15.8310547 101.30127,17.1367188 103.680176,17.1367188 Z M111.233887,17.1367188 C111.830892,17.1367188 112.336751,17.0922852 112.751465,17.003418 C113.166178,16.9145508 113.555827,16.7789714 113.92041,16.5966797 L113.92041,16.5966797 L113.92041,14.9833984 C113.473796,15.1930339 113.04541,15.3457031 112.635254,15.4414062 C112.225098,15.5371094 111.789876,15.5849609 111.32959,15.5849609 C110.737142,15.5849609 110.276855,15.4186198 109.94873,15.0859375 C109.620605,14.7532552 109.44515,14.2906901 109.422363,13.6982422 L109.422363,13.6982422 L114.351074,13.6982422 L114.351074,12.6865234 C114.351074,11.601888 114.050293,10.7519531 113.44873,10.1367188 C112.847168,9.52148438 112.006348,9.21386719 110.92627,9.21386719 C109.796061,9.21386719 108.910807,9.56363932 108.270508,10.2631836 C107.630208,10.9627279 107.310059,11.9527995 107.310059,13.2333984 C107.310059,14.4775391 107.656413,15.4391276 108.349121,16.1181641 C109.041829,16.7972005 110.003418,17.1367188 111.233887,17.1367188 Z M112.395996,12.3105469 L109.470215,12.3105469 C109.506673,11.7955729 109.650228,11.3979492 109.900879,11.1176758 C110.15153,10.8374023 110.497884,10.6972656 110.939941,10.6972656 C111.381999,10.6972656 111.73291,10.8374023 111.992676,11.1176758 C112.252441,11.3979492 112.386882,11.7955729 112.395996,12.3105469 L112.395996,12.3105469 Z M118.117676,17.1367188 C119.202311,17.1367188 120.016927,16.9316406 120.561523,16.5214844 C121.10612,16.1113281 121.378418,15.5143229 121.378418,14.7304688 C121.378418,14.3522135 121.312337,14.0263672 121.180176,13.7529297 C121.048014,13.4794922 120.842936,13.2379557 120.564941,13.0283203 C120.286947,12.8186849 119.849447,12.593099 119.252441,12.3515625 C118.58252,12.0826823 118.148438,11.8798828 117.950195,11.7431641 C117.751953,11.6064453 117.652832,11.4446615 117.652832,11.2578125 C117.652832,10.9251302 117.960449,10.7587891 118.575684,10.7587891 C118.922038,10.7587891 119.261556,10.8111979 119.594238,10.9160156 C119.926921,11.0208333 120.284668,11.1552734 120.66748,11.3193359 L120.66748,11.3193359 L121.296387,9.81542969 C120.425944,9.41438802 119.530436,9.21386719 118.609863,9.21386719 C117.643717,9.21386719 116.897461,9.39957682 116.371094,9.77099609 C115.844727,10.1424154 115.581543,10.6676432 115.581543,11.3466797 C115.581543,11.7431641 115.644206,12.0769857 115.769531,12.3481445 C115.894857,12.6193034 116.095378,12.8597005 116.371094,13.0693359 C116.64681,13.2789714 117.078613,13.5068359 117.666504,13.7529297 C118.07666,13.9261068 118.404785,14.0776367 118.650879,14.2075195 C118.896973,14.3374023 119.07015,14.4536133 119.17041,14.5561523 C119.270671,14.6586914 119.320801,14.7919922 119.320801,14.9560547 C119.320801,15.3935547 118.942546,15.6123047 118.186035,15.6123047 C117.816895,15.6123047 117.389648,15.5507812 116.904297,15.4277344 C116.418945,15.3046875 115.982585,15.1520182 115.595215,14.9697266 L115.595215,14.9697266 L115.595215,16.6923828 C115.937012,16.8382161 116.303874,16.9487305 116.695801,17.0239258 C117.087728,17.0991211 117.561686,17.1367188 118.117676,17.1367188 Z" id="Lifestylechoices" fill="#FFFFFF" fill-rule="nonzero"></path>
                        </g>
                    </g>
                    <g id="Chip/Basic-Copy-3" transform="translate(331.000000, 63.000000)">
                        <g id="Chip">
                            <g id="Container/Circular">
                                <path d="M12,0 L116.129883,0 C122.7573,-1.21743675e-15 128.129883,5.372583 128.129883,12 C128.129883,18.627417 122.7573,24 116.129883,24 L12,24 C5.372583,24 8.11624501e-16,18.627417 0,12 C-8.11624501e-16,5.372583 5.372583,-5.58920087e-16 12,0 Z" id="Color" fill="#736E50" fill-rule="nonzero"></path>
                                <g id="State" stroke-width="1" fill-rule="evenodd" transform="translate(2.512351, 0.000000)">
                                    <path d="M11,0 L115.129883,0 C121.7573,-1.21743675e-15 127.129883,5.372583 127.129883,12 C127.129883,18.627417 121.7573,24 115.129883,24 L11,24 C4.372583,24 -1,18.627417 -1,12 C-1,5.372583 4.372583,-5.58920087e-16 11,0 Z" fill-rule="nonzero"></path>
                                </g>
                            </g>
                            <path d="M10.1191406,17.0991848 L10.1191406,13.3899457 L11.0283203,13.3899457 C12.2679036,13.3899457 13.2237956,13.092731 13.8959961,12.4983016 C14.5681966,11.9038723 14.9042969,11.0455163 14.9042969,9.9232337 C14.9042969,8.84375 14.5887044,8.03175951 13.9575195,7.48726223 C13.3263346,6.94276495 12.4046224,6.6705163 11.1923828,6.6705163 L11.1923828,6.6705163 L8,6.6705163 L8,17.0991848 L10.1191406,17.0991848 Z M10.8164062,11.578125 L10.1191406,11.578125 L10.1191406,8.48233696 L11.0830078,8.48233696 C11.6617839,8.48233696 12.0867513,8.60597826 12.3579102,8.85326087 C12.629069,9.10054348 12.7646484,9.48335598 12.7646484,10.0016984 C12.7646484,10.5152853 12.6028646,10.9064198 12.2792969,11.1751019 C11.9557292,11.443784 11.468099,11.578125 10.8164062,11.578125 L10.8164062,11.578125 Z M19.8466797,17.2418478 C21.0179036,17.2418478 21.9316406,16.8756793 22.5878906,16.1433424 C23.2441406,15.4110054 23.5722656,14.3957201 23.5722656,13.0974864 C23.5722656,12.2605299 23.421875,11.5305707 23.1210938,10.9076087 C22.8203125,10.2846467 22.3896484,9.80672554 21.8291016,9.47384511 C21.2685547,9.14096467 20.6214193,8.97452446 19.8876953,8.97452446 C18.7073568,8.97452446 17.7913411,9.3359375 17.1396484,10.0587636 C16.4879557,10.7815897 16.1621094,11.7944973 16.1621094,13.0974864 C16.1621094,13.9344429 16.3125,14.6667799 16.6132812,15.2944973 C16.9140625,15.9222147 17.3447266,16.4037024 17.9052734,16.7389606 C18.4658203,17.0742188 19.1129557,17.2418478 19.8466797,17.2418478 Z M19.8740234,15.4942255 C19.3134766,15.4942255 18.9090169,15.2921196 18.6606445,14.8879076 C18.4122721,14.4836957 18.2880859,13.8868886 18.2880859,13.0974864 C18.2880859,12.3033288 18.4111328,11.7100883 18.6572266,11.3177649 C18.9033203,10.9254416 19.304362,10.7292799 19.8603516,10.7292799 C20.4208984,10.7292799 20.8242188,10.9266304 21.0703125,11.3213315 C21.3164062,11.7160326 21.4394531,12.3080842 21.4394531,13.0974864 C21.4394531,13.891644 21.3175456,14.4896399 21.0737305,14.8914742 C20.8299154,15.2933084 20.430013,15.4942255 19.8740234,15.4942255 Z M27.3662109,17.2418478 C28.4508464,17.2418478 29.2654622,17.0278533 29.8100586,16.5998641 C30.3546549,16.171875 30.6269531,15.548913 30.6269531,14.7309783 C30.6269531,14.3362772 30.5608724,13.9962636 30.4287109,13.7109375 C30.2965495,13.4256114 30.0914714,13.1735734 29.8134766,12.9548234 C29.5354818,12.7360734 29.0979818,12.5006793 28.5009766,12.2486413 C27.8310547,11.9680707 27.3969727,11.7564538 27.1987305,11.6137908 C27.0004883,11.4711277 26.9013672,11.3023098 26.9013672,11.107337 C26.9013672,10.7601902 27.2089844,10.5866168 27.8242188,10.5866168 C28.1705729,10.5866168 28.5100911,10.6413043 28.8427734,10.7506793 C29.1754557,10.8600543 29.5332031,11.0003397 29.9160156,11.1715353 L29.9160156,11.1715353 L30.5449219,9.60224185 C29.6744792,9.18376359 28.7789714,8.97452446 27.8583984,8.97452446 C26.8922526,8.97452446 26.1459961,9.16830842 25.6196289,9.55587636 C25.0932617,9.94344429 24.8300781,10.4915082 24.8300781,11.2000679 C24.8300781,11.6137908 24.8927409,11.9621264 25.0180664,12.2450747 C25.1433919,12.5280231 25.3439128,12.7788723 25.6196289,12.9976223 C25.8953451,13.2163723 26.3271484,13.454144 26.9150391,13.7109375 C27.3251953,13.891644 27.6533203,14.0497622 27.8994141,14.1852921 C28.1455078,14.320822 28.3186849,14.4420856 28.4189453,14.5490829 C28.5192057,14.6560802 28.5693359,14.7951766 28.5693359,14.9663723 C28.5693359,15.422894 28.1910807,15.6511549 27.4345703,15.6511549 C27.0654297,15.6511549 26.6381836,15.5869565 26.152832,15.4585598 C25.6674805,15.330163 25.2311198,15.170856 24.84375,14.9806386 L24.84375,14.9806386 L24.84375,16.7781929 C25.1855469,16.9303668 25.5524089,17.0456861 25.9443359,17.1241508 C26.336263,17.2026155 26.8102214,17.2418478 27.3662109,17.2418478 Z M34.8720703,17.2418478 C35.6285807,17.2418478 36.2666016,17.1205842 36.7861328,16.8780571 L36.7861328,16.8780571 L36.7861328,15.2588315 C36.2757161,15.4252717 35.8382161,15.5084918 35.4736328,15.5084918 C35.2001953,15.5084918 34.980306,15.4347826 34.8139648,15.2873641 C34.6476237,15.1399457 34.5644531,14.9116848 34.5644531,14.6025815 L34.5644531,14.6025815 L34.5644531,10.7578125 L36.7041016,10.7578125 L36.7041016,9.12432065 L34.5644531,9.12432065 L34.5644531,7.42663043 L33.2314453,7.42663043 L32.6298828,9.11005435 L31.4814453,9.83763587 L31.4814453,10.7578125 L32.4794922,10.7578125 L32.4794922,14.6025815 C32.4794922,15.482337 32.6697591,16.1421535 33.050293,16.5820313 C33.4308268,17.021909 34.0380859,17.2418478 34.8720703,17.2418478 Z M41.3251953,14.0747283 L41.3251953,12.2914402 L37.6542969,12.2914402 L37.6542969,14.0747283 L41.3251953,14.0747283 Z M44.9072266,17.2418478 C45.991862,17.2418478 46.8064779,17.0278533 47.3510742,16.5998641 C47.8956706,16.171875 48.1679688,15.548913 48.1679688,14.7309783 C48.1679688,14.3362772 48.101888,13.9962636 47.9697266,13.7109375 C47.8375651,13.4256114 47.632487,13.1735734 47.3544922,12.9548234 C47.0764974,12.7360734 46.6389974,12.5006793 46.0419922,12.2486413 C45.3720703,11.9680707 44.9379883,11.7564538 44.7397461,11.6137908 C44.5415039,11.4711277 44.4423828,11.3023098 44.4423828,11.107337 C44.4423828,10.7601902 44.75,10.5866168 45.3652344,10.5866168 C45.7115885,10.5866168 46.0511068,10.6413043 46.3837891,10.7506793 C46.7164714,10.8600543 47.0742188,11.0003397 47.4570312,11.1715353 L47.4570312,11.1715353 L48.0859375,9.60224185 C47.2154948,9.18376359 46.319987,8.97452446 45.3994141,8.97452446 C44.4332682,8.97452446 43.6870117,9.16830842 43.1606445,9.55587636 C42.6342773,9.94344429 42.3710938,10.4915082 42.3710938,11.2000679 C42.3710938,11.6137908 42.4337565,11.9621264 42.559082,12.2450747 C42.6844076,12.5280231 42.8849284,12.7788723 43.1606445,12.9976223 C43.4363607,13.2163723 43.8681641,13.454144 44.4560547,13.7109375 C44.8662109,13.891644 45.1943359,14.0497622 45.4404297,14.1852921 C45.6865234,14.320822 45.8597005,14.4420856 45.9599609,14.5490829 C46.0602214,14.6560802 46.1103516,14.7951766 46.1103516,14.9663723 C46.1103516,15.422894 45.7320964,15.6511549 44.9755859,15.6511549 C44.6064453,15.6511549 44.1791992,15.5869565 43.6938477,15.4585598 C43.2084961,15.330163 42.7721354,15.170856 42.3847656,14.9806386 L42.3847656,14.9806386 L42.3847656,16.7781929 C42.7265625,16.9303668 43.0934245,17.0456861 43.4853516,17.1241508 C43.8772786,17.2026155 44.351237,17.2418478 44.9072266,17.2418478 Z M52.4130859,17.2418478 C53.1695964,17.2418478 53.8076172,17.1205842 54.3271484,16.8780571 L54.3271484,16.8780571 L54.3271484,15.2588315 C53.8167318,15.4252717 53.3792318,15.5084918 53.0146484,15.5084918 C52.7412109,15.5084918 52.5213216,15.4347826 52.3549805,15.2873641 C52.1886393,15.1399457 52.1054688,14.9116848 52.1054688,14.6025815 L52.1054688,14.6025815 L52.1054688,10.7578125 L54.2451172,10.7578125 L54.2451172,9.12432065 L52.1054688,9.12432065 L52.1054688,7.42663043 L50.7724609,7.42663043 L50.1708984,9.11005435 L49.0224609,9.83763587 L49.0224609,10.7578125 L50.0205078,10.7578125 L50.0205078,14.6025815 C50.0205078,15.482337 50.2107747,16.1421535 50.5913086,16.5820313 C50.9718424,17.021909 51.5791016,17.2418478 52.4130859,17.2418478 Z M58.5449219,17.2418478 C59.0690104,17.2418478 59.5361328,17.1407948 59.9462891,16.9386889 C60.3564453,16.7365829 60.6731771,16.4500679 60.8964844,16.079144 L60.8964844,16.079144 L61.0058594,16.079144 L61.2861328,17.0991848 L62.8857422,17.0991848 L62.8857422,9.12432065 L60.8007812,9.12432065 L60.8007812,12.8763587 C60.8007812,13.8179348 60.6708984,14.4920177 60.4111328,14.8986073 C60.1513672,15.305197 59.7298177,15.5084918 59.1464844,15.5084918 C58.718099,15.5084918 58.4059245,15.3646399 58.2099609,15.0769361 C58.0139974,14.7892323 57.9160156,14.3576766 57.9160156,13.782269 L57.9160156,13.782269 L57.9160156,9.12432065 L55.8310547,9.12432065 L55.8310547,14.3243886 C55.8310547,15.2659647 56.0589193,15.9876019 56.5146484,16.4893003 C56.9703776,16.9909986 57.6471354,17.2418478 58.5449219,17.2418478 Z M67.4931641,17.2418478 C68.4638672,17.2418478 69.1861979,16.8495245 69.6601562,16.0648777 L69.6601562,16.0648777 L69.7490234,16.0648777 L70.1523438,17.0991848 L71.7519531,17.0991848 L71.7519531,6 L69.6601562,6 L69.6601562,8.55366848 C69.6601562,9.01970109 69.7125651,9.54993207 69.8173828,10.1443614 L69.8173828,10.1443614 L69.7490234,10.1443614 C69.2431641,9.36447011 68.5094401,8.97452446 67.5478516,8.97452446 C66.6318359,8.97452446 65.9129232,9.33950408 65.3911133,10.0694633 C64.8693034,10.7994226 64.6083984,11.8182745 64.6083984,13.126019 C64.6083984,14.4147418 64.8647461,15.422894 65.3774414,16.1504755 C65.8901367,16.8780571 66.5953776,17.2418478 67.4931641,17.2418478 Z M68.2246094,15.5084918 C67.7415365,15.5084918 67.3701172,15.3123302 67.1103516,14.9200068 C66.8505859,14.5276834 66.7207031,13.9391984 66.7207031,13.1545516 C66.7207031,12.3699049 66.8494466,11.771909 67.1069336,11.3605639 C67.3644206,10.9492188 67.7255859,10.7435462 68.1904297,10.7435462 C68.7600911,10.7435462 69.1713867,10.9290082 69.4243164,11.2999321 C69.6772461,11.670856 69.8037109,12.2843071 69.8037109,13.1402853 L69.8037109,13.1402853 L69.8037109,13.3756793 C69.7809245,14.1508152 69.6453451,14.7000679 69.3969727,15.0234375 C69.1486003,15.3468071 68.7578125,15.5084918 68.2246094,15.5084918 Z M74.3769531,20.6086957 C75.1106771,20.6086957 75.7521159,20.4018342 76.3012695,19.9881114 C76.8504232,19.5743886 77.273112,18.9514266 77.5693359,18.1192255 L77.5693359,18.1192255 L80.8027344,9.12432065 L78.5673828,9.12432065 L77.1523438,13.6110734 C77.0065104,14.0438179 76.9085286,14.5050951 76.8583984,14.9949049 L76.8583984,14.9949049 L76.8173828,14.9949049 C76.7718099,14.4622962 76.6875,14.001019 76.5644531,13.6110734 L76.5644531,13.6110734 L75.1220703,9.12432065 L72.8388672,9.12432065 L75.8740234,17.0421196 L75.7509766,17.4344429 C75.5960286,17.9099864 75.3806966,18.2654552 75.1049805,18.5008492 C74.8292643,18.7362432 74.5068359,18.8539402 74.1376953,18.8539402 C73.8414714,18.8539402 73.5680339,18.8230299 73.3173828,18.7612092 L73.3173828,18.7612092 L73.3173828,20.4874321 C73.663737,20.5682745 74.0169271,20.6086957 74.3769531,20.6086957 Z M88.9921875,17.0991848 L90.3867188,10.7863451 L90.4345703,10.7863451 L91.2275391,14.3101223 L91.8154297,17.0991848 L94.0849609,17.0991848 L96.2861328,9.12432065 L94.2421875,9.12432065 L93.3261719,12.655231 C93.280599,12.8644701 93.2054036,13.2674932 93.1005859,13.8643003 C92.9957682,14.4611073 92.9228516,14.9307065 92.8818359,15.2730978 L92.8818359,15.2730978 L92.8408203,15.2730978 C92.836263,15.1399457 92.8191732,14.9628057 92.7895508,14.741678 C92.7599284,14.5205503 92.726888,14.2946671 92.6904297,14.0640285 C92.6539714,13.8333899 92.6163737,13.6158288 92.5776367,13.4113451 C92.5388997,13.2068614 92.5104167,13.0523098 92.4921875,12.9476902 L92.4921875,12.9476902 L91.5966797,9.12432065 L89.2998047,9.12432065 L88.3564453,12.9476902 L88.2470703,13.5540082 C88.1057943,14.3386549 88.0260417,14.9116848 88.0078125,15.2730978 L88.0078125,15.2730978 L87.9667969,15.2730978 C87.8209635,14.1603261 87.6774089,13.2877038 87.5361328,12.655231 L87.5361328,12.655231 L86.6542969,9.12432065 L84.5761719,9.12432065 L86.75,17.0991848 L88.9921875,17.0991848 Z M100.736328,17.2418478 C101.907552,17.2418478 102.821289,16.8756793 103.477539,16.1433424 C104.133789,15.4110054 104.461914,14.3957201 104.461914,13.0974864 C104.461914,12.2605299 104.311523,11.5305707 104.010742,10.9076087 C103.709961,10.2846467 103.279297,9.80672554 102.71875,9.47384511 C102.158203,9.14096467 101.511068,8.97452446 100.777344,8.97452446 C99.5970052,8.97452446 98.6809896,9.3359375 98.0292969,10.0587636 C97.3776042,10.7815897 97.0517578,11.7944973 97.0517578,13.0974864 C97.0517578,13.9344429 97.2021484,14.6667799 97.5029297,15.2944973 C97.8037109,15.9222147 98.234375,16.4037024 98.7949219,16.7389606 C99.3554688,17.0742188 100.002604,17.2418478 100.736328,17.2418478 Z M100.763672,15.4942255 C100.203125,15.4942255 99.7986654,15.2921196 99.550293,14.8879076 C99.3019206,14.4836957 99.1777344,13.8868886 99.1777344,13.0974864 C99.1777344,12.3033288 99.3007812,11.7100883 99.546875,11.3177649 C99.7929688,10.9254416 100.19401,10.7292799 100.75,10.7292799 C101.310547,10.7292799 101.713867,10.9266304 101.959961,11.3213315 C102.206055,11.7160326 102.329102,12.3080842 102.329102,13.0974864 C102.329102,13.891644 102.207194,14.4896399 101.963379,14.8914742 C101.719564,15.2933084 101.319661,15.4942255 100.763672,15.4942255 Z M108.269531,17.0991848 L108.269531,13.0404212 C108.269531,12.3984375 108.455241,11.8991168 108.82666,11.5424592 C109.198079,11.1858016 109.716471,11.0074728 110.381836,11.0074728 C110.623372,11.0074728 110.828451,11.03125 110.99707,11.0788043 L110.99707,11.0788043 L111.154297,9.03872283 C110.967448,8.99592391 110.732747,8.97452446 110.450195,8.97452446 C109.976237,8.97452446 109.537598,9.11124321 109.134277,9.38468071 C108.730957,9.65811821 108.410807,10.0183424 108.173828,10.4653533 L108.173828,10.4653533 L108.071289,10.4653533 L107.763672,9.12432065 L106.18457,9.12432065 L106.18457,17.0991848 L108.269531,17.0991848 Z M114.626953,17.0991848 L114.626953,14.6168478 L115.522461,13.8678668 L117.723633,17.0991848 L120.129883,17.0991848 L116.910156,12.5838995 L119.945312,9.12432065 L117.59375,9.12432065 L115.454102,11.5495924 L114.544922,12.7622283 L114.517578,12.7622283 L114.626953,10.9504076 L114.626953,6 L112.541992,6 L112.541992,17.0991848 L114.626953,17.0991848 Z" id="Post-studywork" fill="#FFFFFF" fill-rule="nonzero"></path>
                        </g>
                    </g>
                    <g id="Chip/Basic-Copy-4" transform="translate(261.000000, 193.000000)">
                        <g id="Chip">
                            <g id="Container/Circular" transform="translate(0.303711, 0.363281)">
                                <path d="M12,0 L90.6728516,0 C97.3002686,-1.21743675e-15 102.672852,5.372583 102.672852,12 C102.672852,18.627417 97.3002686,24 90.6728516,24 L12,24 C5.372583,24 8.11624501e-16,18.627417 0,12 C-8.11624501e-16,5.372583 5.372583,-2.33527693e-15 12,0 Z" id="Color" fill="#AA5D00" fill-rule="nonzero"></path>
                                <g id="State" stroke-width="1" fill-rule="evenodd" transform="translate(2.013193, 0.000000)">
                                    <path d="M11,0 L89.6728516,0 C96.3002686,-1.21743675e-15 101.672852,5.372583 101.672852,12 C101.672852,18.627417 96.3002686,24 89.6728516,24 L11,24 C4.372583,24 -1,18.627417 -1,12 C-1,5.372583 4.372583,-2.33527693e-15 11,0 Z" fill-rule="nonzero"></path>
                                </g>
                            </g>
                            <path d="M12.7949219,17.1367188 C13.8066406,17.1367188 14.7226562,16.9658203 15.5429688,16.6240234 L15.5429688,16.6240234 L15.5429688,14.8466797 C14.5449219,15.1975911 13.694987,15.3730469 12.9931641,15.3730469 C11.320638,15.3730469 10.484375,14.2587891 10.484375,12.0302734 C10.484375,10.9593099 10.703125,10.1241862 11.140625,9.52490234 C11.578125,8.92561849 12.195638,8.62597656 12.9931641,8.62597656 C13.3577474,8.62597656 13.7291667,8.69205729 14.1074219,8.82421875 C14.4856771,8.95638021 14.8616536,9.11132812 15.2353516,9.2890625 L15.2353516,9.2890625 L15.9189453,7.56640625 C14.9391276,7.09700521 13.9638672,6.86230469 12.9931641,6.86230469 C12.0406901,6.86230469 11.2101237,7.07080078 10.5014648,7.48779297 C9.79280599,7.90478516 9.24934896,8.50406901 8.87109375,9.28564453 C8.49283854,10.0672201 8.30371094,10.9775391 8.30371094,12.0166016 C8.30371094,13.6663411 8.68880208,14.9321289 9.45898438,15.8139648 C10.2291667,16.6958008 11.3411458,17.1367188 12.7949219,17.1367188 Z M19.3642578,17.1367188 C19.961263,17.1367188 20.4454753,17.0512695 20.8168945,16.8803711 C21.1883138,16.7094727 21.5494792,16.4029948 21.9003906,15.9609375 L21.9003906,15.9609375 L21.9550781,15.9609375 L22.3583984,17 L23.8144531,17 L23.8144531,11.9072266 C23.8144531,10.9957682 23.5410156,10.3167318 22.9941406,9.87011719 C22.4472656,9.4235026 21.6611328,9.20019531 20.6357422,9.20019531 C19.5647786,9.20019531 18.5895182,9.43033854 17.7099609,9.890625 L17.7099609,9.890625 L18.4003906,11.2988281 C19.2252604,10.9296875 19.9430339,10.7451172 20.5537109,10.7451172 C21.3466797,10.7451172 21.7431641,11.132487 21.7431641,11.9072266 L21.7431641,11.9072266 L21.7431641,12.2421875 L20.4169922,12.2832031 C19.273112,12.3242188 18.4174805,12.5372721 17.8500977,12.9223633 C17.2827148,13.3074544 16.9990234,13.905599 16.9990234,14.7167969 C16.9990234,15.4915365 17.2097982,16.0885417 17.6313477,16.5078125 C18.0528971,16.9270833 18.6305339,17.1367188 19.3642578,17.1367188 Z M20.1503906,15.6123047 C19.4759115,15.6123047 19.1386719,15.3183594 19.1386719,14.7304688 C19.1386719,14.3203125 19.2867839,14.014974 19.5830078,13.8144531 C19.8792318,13.6139323 20.3304036,13.5045573 20.9365234,13.4863281 L20.9365234,13.4863281 L21.7431641,13.4589844 L21.7431641,14.0878906 C21.7431641,14.5481771 21.5984701,14.9173177 21.309082,15.1953125 C21.019694,15.4733073 20.6334635,15.6123047 20.1503906,15.6123047 Z M28.0458984,17 L28.0458984,13.1103516 C28.0458984,12.4951172 28.2316081,12.0166016 28.6030273,11.6748047 C28.9744466,11.3330078 29.4928385,11.1621094 30.1582031,11.1621094 C30.3997396,11.1621094 30.6048177,11.1848958 30.7734375,11.2304688 L30.7734375,11.2304688 L30.9306641,9.27539062 C30.7438151,9.234375 30.5091146,9.21386719 30.2265625,9.21386719 C29.7526042,9.21386719 29.3139648,9.34488932 28.9106445,9.60693359 C28.5073242,9.86897786 28.1871745,10.2141927 27.9501953,10.6425781 L27.9501953,10.6425781 L27.8476562,10.6425781 L27.5400391,9.35742188 L25.9609375,9.35742188 L25.9609375,17 L28.0458984,17 Z M35.7773438,17.1367188 C36.374349,17.1367188 36.8802083,17.0922852 37.2949219,17.003418 C37.7096354,16.9145508 38.0992839,16.7789714 38.4638672,16.5966797 L38.4638672,16.5966797 L38.4638672,14.9833984 C38.0172526,15.1930339 37.5888672,15.3457031 37.1787109,15.4414062 C36.7685547,15.5371094 36.3333333,15.5849609 35.8730469,15.5849609 C35.280599,15.5849609 34.8203125,15.4186198 34.4921875,15.0859375 C34.1640625,14.7532552 33.9886068,14.2906901 33.9658203,13.6982422 L33.9658203,13.6982422 L38.8945312,13.6982422 L38.8945312,12.6865234 C38.8945312,11.601888 38.59375,10.7519531 37.9921875,10.1367188 C37.390625,9.52148438 36.5498047,9.21386719 35.4697266,9.21386719 C34.3395182,9.21386719 33.4542643,9.56363932 32.8139648,10.2631836 C32.1736654,10.9627279 31.8535156,11.9527995 31.8535156,13.2333984 C31.8535156,14.4775391 32.1998698,15.4391276 32.8925781,16.1181641 C33.5852865,16.7972005 34.546875,17.1367188 35.7773438,17.1367188 Z M36.9394531,12.3105469 L34.0136719,12.3105469 C34.0501302,11.7955729 34.1936849,11.3979492 34.4443359,11.1176758 C34.694987,10.8374023 35.0413411,10.6972656 35.4833984,10.6972656 C35.9254557,10.6972656 36.2763672,10.8374023 36.5361328,11.1176758 C36.7958984,11.3979492 36.9303385,11.7955729 36.9394531,12.3105469 L36.9394531,12.3105469 Z M44.0488281,17.1367188 C44.6458333,17.1367188 45.1516927,17.0922852 45.5664062,17.003418 C45.9811198,16.9145508 46.3707682,16.7789714 46.7353516,16.5966797 L46.7353516,16.5966797 L46.7353516,14.9833984 C46.288737,15.1930339 45.8603516,15.3457031 45.4501953,15.4414062 C45.0400391,15.5371094 44.6048177,15.5849609 44.1445312,15.5849609 C43.5520833,15.5849609 43.0917969,15.4186198 42.7636719,15.0859375 C42.4355469,14.7532552 42.2600911,14.2906901 42.2373047,13.6982422 L42.2373047,13.6982422 L47.1660156,13.6982422 L47.1660156,12.6865234 C47.1660156,11.601888 46.8652344,10.7519531 46.2636719,10.1367188 C45.6621094,9.52148438 44.8212891,9.21386719 43.7412109,9.21386719 C42.6110026,9.21386719 41.7257487,9.56363932 41.0854492,10.2631836 C40.4451497,10.9627279 40.125,11.9527995 40.125,13.2333984 C40.125,14.4775391 40.4713542,15.4391276 41.1640625,16.1181641 C41.8567708,16.7972005 42.8183594,17.1367188 44.0488281,17.1367188 Z M45.2109375,12.3105469 L42.2851562,12.3105469 C42.3216146,11.7955729 42.4651693,11.3979492 42.7158203,11.1176758 C42.9664714,10.8374023 43.3128255,10.6972656 43.7548828,10.6972656 C44.1969401,10.6972656 44.5478516,10.8374023 44.8076172,11.1176758 C45.0673828,11.3979492 45.2018229,11.7955729 45.2109375,12.3105469 L45.2109375,12.3105469 Z M50.9462891,17 L50.9462891,13.1103516 C50.9462891,12.4951172 51.1319987,12.0166016 51.503418,11.6748047 C51.8748372,11.3330078 52.3932292,11.1621094 53.0585938,11.1621094 C53.3001302,11.1621094 53.5052083,11.1848958 53.6738281,11.2304688 L53.6738281,11.2304688 L53.8310547,9.27539062 C53.6442057,9.234375 53.4095052,9.21386719 53.1269531,9.21386719 C52.6529948,9.21386719 52.2143555,9.34488932 51.8110352,9.60693359 C51.4077148,9.86897786 51.0875651,10.2141927 50.8505859,10.6425781 L50.8505859,10.6425781 L50.7480469,10.6425781 L50.4404297,9.35742188 L48.8613281,9.35742188 L48.8613281,17 L50.9462891,17 Z M60.9404297,20.3632812 L60.9404297,17.2666016 C60.9404297,17.1663411 60.9039714,16.7972005 60.8310547,16.1591797 L60.8310547,16.1591797 L60.9404297,16.1591797 C61.4508464,16.8108724 62.1549479,17.1367188 63.0527344,17.1367188 C63.6497396,17.1367188 64.1692708,16.9794922 64.6113281,16.6650391 C65.0533854,16.3505859 65.394043,15.8925781 65.6333008,15.2910156 C65.8725586,14.6894531 65.9921875,13.9807943 65.9921875,13.1650391 C65.9921875,11.9254557 65.7369792,10.9570312 65.2265625,10.2597656 C64.7161458,9.5625 64.0097656,9.21386719 63.1074219,9.21386719 C62.1503906,9.21386719 61.4280599,9.5921224 60.9404297,10.3486328 L60.9404297,10.3486328 L60.8447266,10.3486328 L60.5507812,9.35742188 L58.8554688,9.35742188 L58.8554688,20.3632812 L60.9404297,20.3632812 Z M62.4648438,15.4482422 C61.9361979,15.4482422 61.5499674,15.2705078 61.3061523,14.9150391 C61.0623372,14.5595703 60.9404297,13.9716797 60.9404297,13.1513672 L60.9404297,13.1513672 L60.9404297,12.9257812 C60.9495443,12.1966146 61.0725911,11.6736654 61.3095703,11.3569336 C61.5465495,11.0402018 61.922526,10.8818359 62.4375,10.8818359 C62.9296875,10.8818359 63.2908529,11.0698242 63.5209961,11.4458008 C63.7511393,11.8217773 63.8662109,12.3857422 63.8662109,13.1376953 C63.8662109,14.6780599 63.3990885,15.4482422 62.4648438,15.4482422 Z M69.7998047,17 L69.7998047,6.36328125 L67.7148438,6.36328125 L67.7148438,17 L69.7998047,17 Z M73.8466797,17.1367188 C74.4436849,17.1367188 74.9278971,17.0512695 75.2993164,16.8803711 C75.6707357,16.7094727 76.031901,16.4029948 76.3828125,15.9609375 L76.3828125,15.9609375 L76.4375,15.9609375 L76.8408203,17 L78.296875,17 L78.296875,11.9072266 C78.296875,10.9957682 78.0234375,10.3167318 77.4765625,9.87011719 C76.9296875,9.4235026 76.1435547,9.20019531 75.1181641,9.20019531 C74.0472005,9.20019531 73.0719401,9.43033854 72.1923828,9.890625 L72.1923828,9.890625 L72.8828125,11.2988281 C73.7076823,10.9296875 74.4254557,10.7451172 75.0361328,10.7451172 C75.8291016,10.7451172 76.2255859,11.132487 76.2255859,11.9072266 L76.2255859,11.9072266 L76.2255859,12.2421875 L74.8994141,12.2832031 C73.7555339,12.3242188 72.8999023,12.5372721 72.3325195,12.9223633 C71.7651367,13.3074544 71.4814453,13.905599 71.4814453,14.7167969 C71.4814453,15.4915365 71.6922201,16.0885417 72.1137695,16.5078125 C72.535319,16.9270833 73.1129557,17.1367188 73.8466797,17.1367188 Z M74.6328125,15.6123047 C73.9583333,15.6123047 73.6210938,15.3183594 73.6210938,14.7304688 C73.6210938,14.3203125 73.7692057,14.014974 74.0654297,13.8144531 C74.3616536,13.6139323 74.8128255,13.5045573 75.4189453,13.4863281 L75.4189453,13.4863281 L76.2255859,13.4589844 L76.2255859,14.0878906 C76.2255859,14.5481771 76.0808919,14.9173177 75.7915039,15.1953125 C75.5021159,15.4733073 75.1158854,15.6123047 74.6328125,15.6123047 Z M82.5283203,17 L82.5283203,13.4042969 C82.5283203,12.5019531 82.6582031,11.855957 82.9179688,11.4663086 C83.1777344,11.0766602 83.5992839,10.8818359 84.1826172,10.8818359 C84.6110026,10.8818359 84.9231771,11.019694 85.1191406,11.2954102 C85.3151042,11.5711263 85.4130859,11.9847005 85.4130859,12.5361328 L85.4130859,12.5361328 L85.4130859,17 L87.4980469,17 L87.4980469,12.0166016 C87.4980469,11.1097005 87.2679036,10.4158529 86.8076172,9.93505859 C86.3473307,9.45426432 85.6728516,9.21386719 84.7841797,9.21386719 C84.2646484,9.21386719 83.800944,9.30843099 83.3930664,9.49755859 C82.9851888,9.6866862 82.6650391,9.96582031 82.4326172,10.3349609 L82.4326172,10.3349609 L82.3164062,10.3349609 L82.0361328,9.35742188 L80.4433594,9.35742188 L80.4433594,17 L82.5283203,17 Z M91.7158203,17.1367188 C92.8004557,17.1367188 93.6150716,16.9316406 94.159668,16.5214844 C94.7042643,16.1113281 94.9765625,15.5143229 94.9765625,14.7304688 C94.9765625,14.3522135 94.9104818,14.0263672 94.7783203,13.7529297 C94.6461589,13.4794922 94.4410807,13.2379557 94.1630859,13.0283203 C93.8850911,12.8186849 93.4475911,12.593099 92.8505859,12.3515625 C92.1806641,12.0826823 91.746582,11.8798828 91.5483398,11.7431641 C91.3500977,11.6064453 91.2509766,11.4446615 91.2509766,11.2578125 C91.2509766,10.9251302 91.5585938,10.7587891 92.1738281,10.7587891 C92.5201823,10.7587891 92.8597005,10.8111979 93.1923828,10.9160156 C93.5250651,11.0208333 93.8828125,11.1552734 94.265625,11.3193359 L94.265625,11.3193359 L94.8945312,9.81542969 C94.0240885,9.41438802 93.1285807,9.21386719 92.2080078,9.21386719 C91.241862,9.21386719 90.4956055,9.39957682 89.9692383,9.77099609 C89.4428711,10.1424154 89.1796875,10.6676432 89.1796875,11.3466797 C89.1796875,11.7431641 89.2423503,12.0769857 89.3676758,12.3481445 C89.4930013,12.6193034 89.6935221,12.8597005 89.9692383,13.0693359 C90.2449544,13.2789714 90.6767578,13.5068359 91.2646484,13.7529297 C91.6748047,13.9261068 92.0029297,14.0776367 92.2490234,14.2075195 C92.4951172,14.3374023 92.6682943,14.4536133 92.7685547,14.5561523 C92.8688151,14.6586914 92.9189453,14.7919922 92.9189453,14.9560547 C92.9189453,15.3935547 92.5406901,15.6123047 91.7841797,15.6123047 C91.4150391,15.6123047 90.987793,15.5507812 90.5024414,15.4277344 C90.0170898,15.3046875 89.5807292,15.1520182 89.1933594,14.9697266 L89.1933594,14.9697266 L89.1933594,16.6923828 C89.5351562,16.8382161 89.9020182,16.9487305 90.2939453,17.0239258 C90.6858724,17.0991211 91.1598307,17.1367188 91.7158203,17.1367188 Z" id="Careerplans" fill="#FFFFFF" fill-rule="nonzero"></path>
                        </g>
                    </g>
                </g>
                <g id="Stacked-Group-2" transform="translate(172.000000, 0.000000)">
                    <g id="Chip/Basic">
                        <g id="Chip">
                            <g id="Container/Circular" transform="translate(0.000000, 0.090820)">
                                <path d="M12,0 L100.523438,0 C107.150854,-1.21743675e-15 112.523438,5.372583 112.523438,12 C112.523438,18.627417 107.150854,24 100.523438,24 L12,24 C5.372583,24 8.11624501e-16,18.627417 0,12 C-8.11624501e-16,5.372583 5.372583,1.21743675e-15 12,0 Z" id="Color" fill="#913D88" fill-rule="nonzero"></path>
                                <g id="State" stroke-width="1" fill-rule="evenodd" transform="translate(2.206342, 0.000000)">
                                    <path d="M11,0 L99.5234375,0 C106.150854,-1.21743675e-15 111.523438,5.372583 111.523438,12 C111.523438,18.627417 106.150854,24 99.5234375,24 L11,24 C4.372583,24 -1,18.627417 -1,12 C-1,5.372583 4.372583,1.21743675e-15 11,0 Z" fill-rule="nonzero"></path>
                                </g>
                            </g>
                            <path d="M17.4609375,20.0908203 L15.0546875,17.4042969 C15.8613281,17.0351562 16.4731445,16.4529622 16.8901367,15.6577148 C17.3071289,14.8624674 17.515625,13.8769531 17.515625,12.7011719 C17.515625,11.0423177 17.1088867,9.77083333 16.2954102,8.88671875 C15.4819336,8.00260417 14.3072917,7.56054688 12.7714844,7.56054688 C11.2356771,7.56054688 10.0564779,7.9991862 9.23388672,8.87646484 C8.41129557,9.75374349 8,11.0240885 8,12.6875 C8,14.3509115 8.41015625,15.6269531 9.23046875,16.515625 C10.0507812,17.4042969 11.2265625,17.8486328 12.7578125,17.8486328 L12.7578125,17.8486328 L12.9150391,17.8486328 L14.7470703,20.0908203 L17.4609375,20.0908203 Z M12.7578125,16.0712891 C11.9147135,16.0712891 11.28125,15.788737 10.8574219,15.2236328 C10.4335938,14.6585286 10.2216797,13.8177083 10.2216797,12.7011719 C10.2216797,11.5846354 10.4358724,10.7426758 10.8642578,10.175293 C11.2926432,9.60791016 11.9283854,9.32421875 12.7714844,9.32421875 C14.453125,9.32421875 15.2939453,10.4498698 15.2939453,12.7011719 C15.2939453,14.9479167 14.4485677,16.0712891 12.7578125,16.0712891 Z M22.0957031,17.8486328 C22.6197917,17.8486328 23.0869141,17.7517904 23.4970703,17.5581055 C23.9072266,17.3644206 24.2239583,17.0898438 24.4472656,16.734375 L24.4472656,16.734375 L24.5566406,16.734375 L24.8369141,17.7119141 L26.4365234,17.7119141 L26.4365234,10.0693359 L24.3515625,10.0693359 L24.3515625,13.6650391 C24.3515625,14.5673828 24.2216797,15.2133789 23.9619141,15.6030273 C23.7021484,15.9926758 23.280599,16.1875 22.6972656,16.1875 C22.2688802,16.1875 21.9567057,16.0496419 21.7607422,15.7739258 C21.5647786,15.4982096 21.4667969,15.0846354 21.4667969,14.5332031 L21.4667969,14.5332031 L21.4667969,10.0693359 L19.3818359,10.0693359 L19.3818359,15.0527344 C19.3818359,15.9550781 19.6097005,16.6466471 20.0654297,17.1274414 C20.5211589,17.6082357 21.1979167,17.8486328 22.0957031,17.8486328 Z M30.4833984,17.8486328 C31.0804036,17.8486328 31.5646159,17.7631836 31.9360352,17.5922852 C32.3074544,17.4213867 32.6686198,17.1149089 33.0195312,16.6728516 L33.0195312,16.6728516 L33.0742188,16.6728516 L33.4775391,17.7119141 L34.9335938,17.7119141 L34.9335938,12.6191406 C34.9335938,11.7076823 34.6601562,11.0286458 34.1132812,10.5820312 C33.5664062,10.1354167 32.7802734,9.91210938 31.7548828,9.91210938 C30.6839193,9.91210938 29.7086589,10.1422526 28.8291016,10.6025391 L28.8291016,10.6025391 L29.5195312,12.0107422 C30.344401,11.6416016 31.0621745,11.4570312 31.6728516,11.4570312 C32.4658203,11.4570312 32.8623047,11.844401 32.8623047,12.6191406 L32.8623047,12.6191406 L32.8623047,12.9541016 L31.5361328,12.9951172 C30.3922526,13.0361328 29.5366211,13.2491862 28.9692383,13.6342773 C28.4018555,14.0193685 28.1181641,14.617513 28.1181641,15.4287109 C28.1181641,16.2034505 28.3289388,16.8004557 28.7504883,17.2197266 C29.1720378,17.6389974 29.7496745,17.8486328 30.4833984,17.8486328 Z M31.2695312,16.3242188 C30.5950521,16.3242188 30.2578125,16.0302734 30.2578125,15.4423828 C30.2578125,15.0322266 30.4059245,14.726888 30.7021484,14.5263672 C30.9983724,14.3258464 31.4495443,14.2164714 32.0556641,14.1982422 L32.0556641,14.1982422 L32.8623047,14.1708984 L32.8623047,14.7998047 C32.8623047,15.2600911 32.7176107,15.6292318 32.4282227,15.9072266 C32.1388346,16.1852214 31.7526042,16.3242188 31.2695312,16.3242188 Z M39.1650391,17.7119141 L39.1650391,7.07519531 L37.0800781,7.07519531 L37.0800781,17.7119141 L39.1650391,17.7119141 Z M42.3984375,9.11914062 C42.7766927,9.11914062 43.0603841,9.02913411 43.2495117,8.84912109 C43.4386393,8.66910807 43.5332031,8.41731771 43.5332031,8.09375 C43.5332031,7.41471354 43.1549479,7.07519531 42.3984375,7.07519531 C41.6419271,7.07519531 41.2636719,7.41471354 41.2636719,8.09375 C41.2636719,8.77734375 41.6419271,9.11914062 42.3984375,9.11914062 Z M43.4375,17.7119141 L43.4375,10.0693359 L41.3525391,10.0693359 L41.3525391,17.7119141 L43.4375,17.7119141 Z M48.0449219,17.7119141 L48.0449219,11.6347656 L49.8496094,11.6347656 L49.8496094,10.0693359 L48.0449219,10.0693359 L48.0449219,9.59082031 C48.0449219,9.31738281 48.1110026,9.0929362 48.2431641,8.91748047 C48.3753255,8.74202474 48.5895182,8.65429688 48.8857422,8.65429688 C49.2412109,8.65429688 49.6285807,8.7203776 50.0478516,8.85253906 L50.0478516,8.85253906 L50.5810547,7.32128906 C50.0205078,7.10709635 49.3802083,7 48.6601562,7 C47.7167969,7 47.0309245,7.20052083 46.6025391,7.6015625 C46.1741536,8.00260417 45.9599609,8.63834635 45.9599609,9.50878906 L45.9599609,9.50878906 L45.9599609,10.0693359 L44.8115234,10.6298828 L44.8115234,11.6347656 L45.9599609,11.6347656 L45.9599609,17.7119141 L48.0449219,17.7119141 Z M52.0917969,9.11914062 C52.4700521,9.11914062 52.7537435,9.02913411 52.9428711,8.84912109 C53.1319987,8.66910807 53.2265625,8.41731771 53.2265625,8.09375 C53.2265625,7.41471354 52.8483073,7.07519531 52.0917969,7.07519531 C51.3352865,7.07519531 50.9570312,7.41471354 50.9570312,8.09375 C50.9570312,8.77734375 51.3352865,9.11914062 52.0917969,9.11914062 Z M53.1308594,17.7119141 L53.1308594,10.0693359 L51.0458984,10.0693359 L51.0458984,17.7119141 L53.1308594,17.7119141 Z M58.421875,17.8486328 C58.9459635,17.8486328 59.3800456,17.8076172 59.7241211,17.7255859 C60.0681966,17.6435547 60.4088542,17.4954427 60.7460938,17.28125 L60.7460938,17.28125 L60.7460938,15.4970703 C60.4042969,15.7249349 60.0625,15.8924154 59.7207031,15.9995117 C59.3789062,16.1066081 59.007487,16.1601562 58.6064453,16.1601562 C57.5218099,16.1601562 56.9794922,15.4127604 56.9794922,13.9179688 C56.9794922,12.3776042 57.5218099,11.6074219 58.6064453,11.6074219 C58.8889974,11.6074219 59.1715495,11.6495768 59.4541016,11.7338867 C59.7366536,11.8181966 60.0419922,11.9264323 60.3701172,12.0585938 L60.3701172,12.0585938 L60.9853516,10.4453125 C60.2835286,10.0989583 59.4905599,9.92578125 58.6064453,9.92578125 C57.398763,9.92578125 56.4713542,10.2687174 55.8242188,10.9545898 C55.1770833,11.6404622 54.8535156,12.6328125 54.8535156,13.9316406 C54.8535156,16.5429688 56.0429688,17.8486328 58.421875,17.8486328 Z M64.3759766,17.8486328 C64.9729818,17.8486328 65.457194,17.7631836 65.8286133,17.5922852 C66.2000326,17.4213867 66.5611979,17.1149089 66.9121094,16.6728516 L66.9121094,16.6728516 L66.9667969,16.6728516 L67.3701172,17.7119141 L68.8261719,17.7119141 L68.8261719,12.6191406 C68.8261719,11.7076823 68.5527344,11.0286458 68.0058594,10.5820312 C67.4589844,10.1354167 66.6728516,9.91210938 65.6474609,9.91210938 C64.5764974,9.91210938 63.601237,10.1422526 62.7216797,10.6025391 L62.7216797,10.6025391 L63.4121094,12.0107422 C64.2369792,11.6416016 64.9547526,11.4570312 65.5654297,11.4570312 C66.3583984,11.4570312 66.7548828,11.844401 66.7548828,12.6191406 L66.7548828,12.6191406 L66.7548828,12.9541016 L65.4287109,12.9951172 C64.2848307,13.0361328 63.4291992,13.2491862 62.8618164,13.6342773 C62.2944336,14.0193685 62.0107422,14.617513 62.0107422,15.4287109 C62.0107422,16.2034505 62.2215169,16.8004557 62.6430664,17.2197266 C63.0646159,17.6389974 63.6422526,17.8486328 64.3759766,17.8486328 Z M65.1621094,16.3242188 C64.4876302,16.3242188 64.1503906,16.0302734 64.1503906,15.4423828 C64.1503906,15.0322266 64.2985026,14.726888 64.5947266,14.5263672 C64.8909505,14.3258464 65.3421224,14.2164714 65.9482422,14.1982422 L65.9482422,14.1982422 L66.7548828,14.1708984 L66.7548828,14.7998047 C66.7548828,15.2600911 66.6101888,15.6292318 66.3208008,15.9072266 C66.0314128,16.1852214 65.6451823,16.3242188 65.1621094,16.3242188 Z M73.5908203,17.8486328 C74.3473307,17.8486328 74.9853516,17.7324219 75.5048828,17.5 L75.5048828,17.5 L75.5048828,15.9482422 C74.9944661,16.1077474 74.5569661,16.1875 74.1923828,16.1875 C73.9189453,16.1875 73.699056,16.116862 73.5327148,15.9755859 C73.3663737,15.8343099 73.2832031,15.6155599 73.2832031,15.3193359 L73.2832031,15.3193359 L73.2832031,11.6347656 L75.4228516,11.6347656 L75.4228516,10.0693359 L73.2832031,10.0693359 L73.2832031,8.44238281 L71.9501953,8.44238281 L71.3486328,10.0556641 L70.2001953,10.7529297 L70.2001953,11.6347656 L71.1982422,11.6347656 L71.1982422,15.3193359 C71.1982422,16.1624349 71.3885091,16.7947591 71.769043,17.2163086 C72.1495768,17.6378581 72.7568359,17.8486328 73.5908203,17.8486328 Z M78.0957031,9.11914062 C78.4739583,9.11914062 78.7576497,9.02913411 78.9467773,8.84912109 C79.1359049,8.66910807 79.2304688,8.41731771 79.2304688,8.09375 C79.2304688,7.41471354 78.8522135,7.07519531 78.0957031,7.07519531 C77.3391927,7.07519531 76.9609375,7.41471354 76.9609375,8.09375 C76.9609375,8.77734375 77.3391927,9.11914062 78.0957031,9.11914062 Z M79.1347656,17.7119141 L79.1347656,10.0693359 L77.0498047,10.0693359 L77.0498047,17.7119141 L79.1347656,17.7119141 Z M84.5419922,17.8486328 C85.7132161,17.8486328 86.6269531,17.4977214 87.2832031,16.7958984 C87.9394531,16.0940755 88.2675781,15.1210938 88.2675781,13.8769531 C88.2675781,13.0748698 88.1171875,12.3753255 87.8164062,11.7783203 C87.515625,11.1813151 87.0849609,10.7233073 86.5244141,10.4042969 C85.9638672,10.0852865 85.3167318,9.92578125 84.5830078,9.92578125 C83.4026693,9.92578125 82.4866536,10.2721354 81.8349609,10.9648438 C81.1832682,11.6575521 80.8574219,12.6282552 80.8574219,13.8769531 C80.8574219,14.6790365 81.0078125,15.3808594 81.3085938,15.9824219 C81.609375,16.5839844 82.0400391,17.0454102 82.6005859,17.3666992 C83.1611328,17.6879883 83.8082682,17.8486328 84.5419922,17.8486328 Z M84.5693359,16.1738281 C84.0087891,16.1738281 83.6043294,15.9801432 83.355957,15.5927734 C83.1075846,15.2054036 82.9833984,14.6334635 82.9833984,13.8769531 C82.9833984,13.1158854 83.1064453,12.5473633 83.3525391,12.1713867 C83.5986328,11.7954102 83.9996745,11.6074219 84.5556641,11.6074219 C85.1162109,11.6074219 85.5195312,11.7965495 85.765625,12.1748047 C86.0117188,12.5530599 86.1347656,13.1204427 86.1347656,13.8769531 C86.1347656,14.6380208 86.0128581,15.2111003 85.769043,15.5961914 C85.5252279,15.9812826 85.1253255,16.1738281 84.5693359,16.1738281 Z M92.0751953,17.7119141 L92.0751953,14.1162109 C92.0751953,13.2138672 92.2050781,12.5678711 92.4648438,12.1782227 C92.7246094,11.7885742 93.1461589,11.59375 93.7294922,11.59375 C94.1578776,11.59375 94.4700521,11.7316081 94.6660156,12.0073242 C94.8619792,12.2830404 94.9599609,12.6966146 94.9599609,13.2480469 L94.9599609,13.2480469 L94.9599609,17.7119141 L97.0449219,17.7119141 L97.0449219,12.7285156 C97.0449219,11.8216146 96.8147786,11.1277669 96.3544922,10.6469727 C95.8942057,10.1661784 95.2197266,9.92578125 94.3310547,9.92578125 C93.8115234,9.92578125 93.347819,10.0203451 92.9399414,10.2094727 C92.5320638,10.3986003 92.2119141,10.6777344 91.9794922,11.046875 L91.9794922,11.046875 L91.8632812,11.046875 L91.5830078,10.0693359 L89.9902344,10.0693359 L89.9902344,17.7119141 L92.0751953,17.7119141 Z M101.262695,17.8486328 C102.347331,17.8486328 103.161947,17.6435547 103.706543,17.2333984 C104.251139,16.8232422 104.523438,16.226237 104.523438,15.4423828 C104.523438,15.0641276 104.457357,14.7382812 104.325195,14.4648438 C104.193034,14.1914062 103.987956,13.9498698 103.709961,13.7402344 C103.431966,13.530599 102.994466,13.305013 102.397461,13.0634766 C101.727539,12.7945964 101.293457,12.5917969 101.095215,12.4550781 C100.896973,12.3183594 100.797852,12.1565755 100.797852,11.9697266 C100.797852,11.6370443 101.105469,11.4707031 101.720703,11.4707031 C102.067057,11.4707031 102.406576,11.523112 102.739258,11.6279297 C103.07194,11.7327474 103.429688,11.8671875 103.8125,12.03125 L103.8125,12.03125 L104.441406,10.5273438 C103.570964,10.1263021 102.675456,9.92578125 101.754883,9.92578125 C100.788737,9.92578125 100.04248,10.1114909 99.5161133,10.4829102 C98.9897461,10.8543294 98.7265625,11.3795573 98.7265625,12.0585938 C98.7265625,12.4550781 98.7892253,12.7888997 98.9145508,13.0600586 C99.0398763,13.3312174 99.2403971,13.5716146 99.5161133,13.78125 C99.7918294,13.9908854 100.223633,14.21875 100.811523,14.4648438 C101.22168,14.6380208 101.549805,14.7895508 101.795898,14.9194336 C102.041992,15.0493164 102.215169,15.1655273 102.31543,15.2680664 C102.41569,15.3706055 102.46582,15.5039062 102.46582,15.6679688 C102.46582,16.1054688 102.087565,16.3242188 101.331055,16.3242188 C100.961914,16.3242188 100.534668,16.2626953 100.049316,16.1396484 C99.5639648,16.0166016 99.1276042,15.8639323 98.7402344,15.6816406 L98.7402344,15.6816406 L98.7402344,17.4042969 C99.0820312,17.5501302 99.4488932,17.6606445 99.8408203,17.7358398 C100.232747,17.8110352 100.706706,17.8486328 101.262695,17.8486328 Z" id="Qualifications" fill="#FFFFFF" fill-rule="nonzero"></path>
                        </g>
                    </g>
                </g>
            </g>
            <g id="Group-23" transform="translate(228.500000, 138.000000) scale(-1, 1) translate(-228.500000, -138.000000) translate(143.000000, 52.000000)">
                <path d="M85.2046,2.475 C38.9616,2.475 1.4756,39.962 1.4756,86.204 C1.4756,132.447 38.9616,169.934 85.2046,169.934 C131.4476,169.934 168.9336,132.447 168.9336,86.204 C168.9336,39.962 131.4476,2.475 85.2046,2.475" id="Fill-1" fill="#73A3CC"></path>
                <g id="Group-5" transform="translate(0.000000, 0.409000)">
                    <mask id="mask-2" fill="white">
                        <use xlink:href="#path-1"></use>
                    </mask>
                    <g id="Clip-4"></g>
                    <path d="M85.2046,3.5411 C39.8496,3.5411 2.9506,40.4401 2.9506,85.7951 C2.9506,131.1511 39.8496,168.0501 85.2046,168.0501 C130.5596,168.0501 167.4596,131.1511 167.4596,85.7951 C167.4596,40.4401 130.5596,3.5411 85.2046,3.5411 M85.2046,171.0001 C38.2226,171.0001 -0.0004,132.7771 -0.0004,85.7951 C-0.0004,38.8131 38.2226,0.5911 85.2046,0.5911 C132.1856,0.5911 170.4086,38.8131 170.4086,85.7951 C170.4086,132.7771 132.1856,171.0001 85.2046,171.0001" id="Fill-3" fill="#464646" fill-rule="nonzero" mask="url(#mask-2)"></path>
                </g>
                <path d="M111.8413,89.7313 L111.8413,57.5603 C111.8413,41.2173 98.5923,27.9693 82.2503,27.9693 L82.2493,27.9693 C65.9063,27.9693 52.6583,41.2173 52.6583,57.5603 L52.6583,73.2473 C43.6673,81.8553 37.9253,94.9483 37.9253,109.6163 C37.9253,135.5433 55.8563,156.5603 77.9743,156.5603 C85.5973,156.5603 91.1013,154.0633 95.0423,149.7303 C99.1063,150.8023 103.4463,151.4113 107.9803,151.4113 C130.0993,151.4113 148.0293,137.5693 148.0293,120.4963 C148.0293,104.4283 132.1473,91.2313 111.8413,89.7313" id="Fill-6" fill="#464646" fill-rule="nonzero"></path>
                <path d="M82.25,29.4442 C66.746,29.4442 54.133,42.0572 54.133,57.5602 L54.133,73.2462 C54.133,73.6492 53.969,74.0332 53.678,74.3122 C44.604,83.0002 39.401,95.8682 39.401,109.6162 C39.401,134.6882 56.705,155.0852 77.975,155.0852 C84.84,155.0852 90.066,153.0092 93.952,148.7382 C94.322,148.3312 94.888,148.1652 95.418,148.3042 C99.524,149.3872 103.75,149.9362 107.98,149.9362 C129.25,149.9362 146.555,136.7292 146.555,120.4962 C146.555,105.2622 131.584,92.6692 111.733,91.2022 C110.962,91.1452 110.367,90.5042 110.367,89.7312 L110.367,57.5602 C110.367,42.0572 97.753,29.4442 82.25,29.4442 M77.975,158.0352 C55.078,158.0352 36.451,136.3152 36.451,109.6162 C36.451,95.2982 41.812,81.8552 51.183,72.6232 L51.183,57.5602 C51.183,40.4302 65.12,26.4942 82.25,26.4942 C99.379,26.4942 113.316,40.4302 113.316,57.5602 L113.316,88.3792 C134.043,90.4362 149.504,104.0592 149.504,120.4962 C149.504,138.3562 130.876,152.8862 107.98,152.8862 C103.789,152.8862 99.6,152.3772 95.517,151.3732 C91.158,155.7952 85.261,158.0352 77.975,158.0352" id="Fill-8" fill="#464646" fill-rule="nonzero"></path>
                <path d="M147.229,142.4491 C146.035,140.8351 144.843,139.2151 143.644,137.6091 C138.827,131.1781 133.969,124.8261 129.092,118.4751 C124.196,105.3781 111.866,95.8991 97.215,95.2501 C96.705,95.2111 96.154,95.2111 95.623,95.2111 L83.922,95.2111 C81.877,95.2111 79.871,95.3881 77.924,95.7221 C74.267,96.3321 70.806,97.4921 67.62,99.1441 C56.077,105.0441 48.171,117.0781 48.171,130.9421 L48.171,161.3021 C59.339,166.8201 71.906,169.9341 85.205,169.9341 C109.796,169.9341 131.911,159.3311 147.229,142.4491" id="Fill-10" fill="#FBD5A2"></path>
                <path d="M49.6465,160.3797 C60.7995,165.7417 72.7575,168.4587 85.2045,168.4587 C107.9555,168.4587 129.7945,158.9567 145.3185,142.3457 L144.9605,141.8617 C144.1295,140.7357 143.2985,139.6097 142.4625,138.4917 C137.5475,131.9297 132.5695,125.4247 127.9225,119.3737 C127.8335,119.2567 127.7625,119.1287 127.7105,118.9917 C122.8815,106.0727 110.8855,97.3327 97.1495,96.7237 C96.6295,96.6847 96.1375,96.6863838 95.6225,96.6863838 L83.9225,96.6863838 C82.0005,96.6863838 80.0665,96.8507 78.1735,97.1757 C74.6975,97.7547 71.3765,98.8577 68.2985,100.4537 C56.7905,106.3357 49.6465,118.0167 49.6465,130.9417 L49.6465,160.3797 Z M85.2045,171.4087 C71.9945,171.4087 59.3145,168.4527 47.5185,162.6237 C47.0155,162.3757 46.6965,161.8627 46.6965,161.3017 L46.6965,130.9417 C46.6965,116.9027 54.4565,104.2157 66.9485,97.8307 C70.2935,96.0967 73.9075,94.8967 77.6825,94.2677 C79.7315,93.9157 81.8335,93.7357 83.9225,93.7357 L95.6225,93.7357 C96.1905,93.7357 96.7805,93.7377 97.3275,93.7797 C112.1265,94.4347 125.1005,103.8357 130.3955,117.7497 C135.0095,123.7597 139.9455,130.2117 144.8245,136.7247 C145.6645,137.8497 146.4995,138.9797 147.3335,140.1087 L148.4145,141.5717 C148.8325,142.1367 148.7935,142.9197 148.3205,143.4407 C132.1935,161.2147 109.1885,171.4087 85.2045,171.4087 L85.2045,171.4087 Z" id="Fill-12" fill="#464646" fill-rule="nonzero"></path>
                <path d="M77.9243,95.7225 C74.2663,96.3315 70.8053,97.4925 67.6193,99.1435 L67.6193,168.0695 C73.2913,169.2815 79.1713,169.9335 85.2043,169.9335 C89.2843,169.9335 93.2913,169.6275 97.2153,169.0635 L97.2153,95.7225 L77.9243,95.7225 Z" id="Fill-14" fill="#FFFFFF"></path>
                <g id="Group-18" transform="translate(66.000000, 93.409000)">
                    <mask id="mask-4" fill="white">
                        <use xlink:href="#path-3"></use>
                    </mask>
                    <g id="Clip-17"></g>
                    <path d="M3.0947,73.4585 C11.8317,75.1945 20.7267,75.5235 29.7407,74.3665 L29.7407,3.7885 L12.0477,3.7885 C8.9187,4.3215 5.9107,5.2805 3.0947,6.6455 L3.0947,73.4585 Z M19.2047,78.0005 C13.2207,78.0005 7.2007,77.3615 1.3117,76.1025 C0.6307,75.9575 0.1447,75.3555 0.1447,74.6605 L0.1447,5.7345 C0.1447,5.1845 0.4517,4.6785 0.9407,4.4255 C4.2937,2.6875 7.9077,1.4875 11.6817,0.8585 C11.7617,0.8455 11.8437,0.8385 11.9247,0.8385 L31.2157,0.8385 C32.0297,0.8385 32.6897,1.4995 32.6897,2.3135 L32.6897,75.6545 C32.6897,76.3875 32.1507,77.0095 31.4257,77.1145 C27.3367,77.7015 23.2247,78.0005 19.2047,78.0005 L19.2047,78.0005 Z" id="Fill-16" fill="#464646" fill-rule="nonzero" mask="url(#mask-4)"></path>
                </g>
                <path d="M79.5761,62.3705 L79.5761,57.8875 C78.2001,51.2605 72.2411,46.2655 65.0831,46.2655 C63.1171,49.2735 61.9951,52.8525 61.9951,56.7065 L61.9951,68.3285 L59.6361,72.2235 C59.2431,72.8715 59.7141,73.7175 60.4811,73.7175 L61.9951,73.7175 L61.9951,77.3745 C61.9951,81.8385 65.6141,85.4765 70.0971,85.4765 L73.3811,85.4765 C76.0161,86.1455 77.9831,88.5055 77.9831,91.3375 L77.9831,95.7095 C77.9651,95.7125 77.9451,95.7135 77.9261,95.7165 C74.2691,96.3235 70.8121,97.4895 67.6261,99.1375 L67.6261,120.2695 L97.2241,120.2695 L97.2241,95.2555 L97.2351,95.2505 L97.2351,80.2265 C87.4811,80.1285 79.5761,72.1835 79.5761,62.3705" id="Fill-19" fill="#F18D4F"></path>
                <path d="M69.1015,118.7943 L95.7495,118.7943 L95.7495,95.2553 C95.7495,95.1953 95.7525,95.1363 95.7605,95.0783 L95.7605,81.6313 C85.8965,80.7833 78.1015,72.4323 78.1015,62.3703 L78.1015,58.0433 C76.8445,52.3223 71.7995,48.1163 65.8885,47.7643 C64.3045,50.4553 63.4705,53.5293 63.4705,56.7073 L63.4705,68.3293 C63.4705,68.5983 63.3965,68.8623 63.2565,69.0933 L61.3485,72.2423 L61.9955,72.2423 C62.8095,72.2423 63.4705,72.9023 63.4705,73.7173 L63.4705,77.3753 C63.4705,81.0293 66.4435,84.0023 70.0975,84.0023 L73.3815,84.0023 C73.5035,84.0023 73.6255,84.0173 73.7445,84.0473 C77.1085,84.9003 79.4585,87.8983 79.4585,91.3373 L79.4585,95.7093 C79.4585,96.4353 78.9295,97.0533 78.2125,97.1663 C78.1895,97.1693 78.1355,97.1763 78.1125,97.1793 C75.0065,97.6963 71.9645,98.6623 69.1015,100.0483 L69.1015,118.7943 Z M97.2245,121.7443 L67.6265,121.7443 C66.8115,121.7443 66.1515,121.0843 66.1515,120.2693 L66.1515,99.1373 C66.1515,98.5863 66.4585,98.0813 66.9485,97.8273 C69.9635,96.2673 73.1735,95.1423 76.5085,94.4773 L76.5085,91.3373 C76.5085,89.3063 75.1505,87.5263 73.1845,86.9523 L70.0975,86.9523 C64.8165,86.9523 60.5205,82.6553 60.5205,77.3753 L60.4815,75.1923 C59.5955,75.1923 58.7745,74.7113 58.3385,73.9373 C57.9025,73.1643 57.9165,72.2143 58.3735,71.4593 L60.5205,67.9173 L60.5205,56.7073 C60.5205,52.6793 61.6715,48.7893 63.8485,45.4583 C64.1205,45.0413 64.5845,44.7903 65.0825,44.7903 C72.7775,44.7903 79.4795,50.1723 81.0195,57.5873 C81.0405,57.6863 81.0515,57.7863 81.0515,57.8873 L81.0515,62.3703 C81.0515,71.3133 88.3175,78.6623 97.2495,78.7523 C98.0585,78.7593 98.7095,79.4183 98.7095,80.2263 L98.7095,95.2503 C98.7095,95.3103 98.7065,95.3693 98.6985,95.4283 L98.6985,120.2693 C98.6985,121.0843 98.0385,121.7443 97.2245,121.7443 L97.2245,121.7443 Z" id="Fill-21" fill="#464646" fill-rule="nonzero"></path>
            </g>
        </g>
    </g>
</svg>